<?xml version="1.0" encoding="UTF-8"?>
<svg version="1.1" xmlns="http://www.w3.org/2000/svg" width="512" height="512">
<path d="M0 0 C1.08867611 -0.00297112 2.17735221 -0.00594224 3.2990185 -0.0090034 C6.93036146 -0.01764313 10.56167127 -0.01919465 14.19302368 -0.02069092 C16.80388458 -0.02532253 19.4147448 -0.03034765 22.02560425 -0.03573608 C29.10876407 -0.04927242 36.19191819 -0.05533713 43.27508879 -0.05974674 C47.70675621 -0.06251784 52.13842147 -0.06675681 56.57008743 -0.07125092 C68.86491699 -0.08343878 81.15974484 -0.09373818 93.45458031 -0.09712601 C94.63316638 -0.09745536 94.63316638 -0.09745536 95.83556227 -0.09779136 C97.01681142 -0.09811878 97.01681142 -0.09811878 98.22192419 -0.09845281 C99.81743391 -0.09889626 101.41294364 -0.09934282 103.00845337 -0.09979248 C103.79986472 -0.10001391 104.59127606 -0.10023534 105.40666957 -0.10046348 C118.20994348 -0.10440551 131.01316026 -0.12184351 143.81641214 -0.145152 C156.99386566 -0.16894594 170.17129064 -0.18133155 183.34876597 -0.18249393 C190.7341941 -0.18340632 198.11954783 -0.18904775 205.50495529 -0.20731354 C211.79794515 -0.22282374 218.09083762 -0.2277715 224.38384299 -0.21957543 C227.58626412 -0.21570673 230.78845177 -0.21809062 233.99085617 -0.23063278 C264.02945946 -0.34129144 288.94893839 2.87917076 311.87124634 24.14044189 C335.62369552 48.95012175 337.02675734 79.27561451 337.01651001 111.93536377 C337.0195101 113.86920231 337.02291455 115.80304026 337.02668762 117.73687744 C337.03544672 122.94399017 337.03786233 128.15108641 337.03850341 133.3582058 C337.03921868 136.62559043 337.04136197 139.892971 337.04400063 143.16035461 C337.05322823 154.59968324 337.05733888 166.03900029 337.05654907 177.47833252 C337.05594941 188.07551276 337.06648601 198.67264191 337.08229274 209.26980925 C337.09544879 218.422026 337.10072959 227.57422623 337.10009366 236.72645235 C337.09984098 242.16857996 337.1025632 247.61066212 337.11327171 253.05278015 C337.25499743 330.55225832 337.25499743 330.55225832 316.87124634 354.14044189 C316.30148071 354.86489502 315.73171509 355.58934814 315.14468384 356.33575439 C301.92739208 372.47772348 281.95947769 381.33786057 261.56780243 383.74071312 C251.38572405 384.73541701 241.08607656 384.42639481 230.86831665 384.4151001 C228.25656998 384.41945378 225.64482458 384.4246391 223.03308105 384.43058777 C216.70607438 384.44326142 210.37911029 384.44513766 204.05209306 384.44278751 C198.90243786 384.44099577 193.75279546 384.4427722 188.60314178 384.44701195 C187.49872369 384.44790473 187.49872369 384.44790473 186.37199412 384.44881555 C184.87565003 384.45002746 183.37930593 384.45124159 181.88296184 384.45245793 C167.88645636 384.4633054 153.88997505 384.46118436 139.89346823 384.45507308 C127.12937081 384.44990751 114.3653498 384.46115487 101.60126749 384.4801713 C88.45073936 384.49961113 75.30024726 384.5077949 62.14970469 384.50404805 C54.7844928 384.50214515 47.41934587 384.50453376 40.05414581 384.51876259 C33.12320516 384.53201854 26.1924189 384.5293335 19.26147842 384.5163517 C16.73128074 384.5140009 14.20107213 384.51666627 11.67088699 384.52497482 C-7.23822935 384.58254595 -25.72628698 384.30369575 -43.12875366 376.14044189 C-44.04656616 375.72149658 -44.96437866 375.30255127 -45.91000366 374.87091064 C-63.90381152 365.89985989 -78.08478972 349.40279595 -85.44515991 330.81622314 C-91.51240279 312.25628092 -91.27999519 292.5691297 -91.27401733 273.25958252 C-91.27701662 271.30456479 -91.28042089 269.34954764 -91.28419495 267.39453125 C-91.29296233 262.125445 -91.29537002 256.85637502 -91.29601073 251.58728218 C-91.29672554 248.28222107 -91.29886799 244.97716399 -91.30150795 241.67210388 C-91.3107384 230.10425559 -91.31484586 218.53641875 -91.3140564 206.96856689 C-91.31345671 196.24698772 -91.32399316 185.52545903 -91.33980006 174.80389261 C-91.35295027 165.54895244 -91.35823716 156.29402861 -91.35760099 147.03907919 C-91.35734813 141.53381157 -91.36008039 136.02858886 -91.37077904 130.52333069 C-91.50948724 53.72513359 -91.50948724 53.72513359 -71.12875366 30.14044189 C-70.55898804 29.41598877 -69.98922241 28.69153564 -69.40219116 27.94512939 C-55.68020177 11.1867849 -34.8248938 2.60084023 -13.67835879 0.34556437 C-9.12124307 -0.02106764 -4.56947671 -0.00394517 0 0 Z M-36.12875366 56.14044189 C-46.01300919 67.3873812 -47.29074113 80.76902099 -47.26246643 95.17686462 C-47.26473199 96.04038963 -47.26699754 96.90391463 -47.26933175 97.79360706 C-47.27561903 100.66273195 -47.2748458 103.53180896 -47.27401733 106.40093994 C-47.27701214 108.46819621 -47.28041542 110.53545192 -47.28419495 112.60270691 C-47.29300702 118.20211195 -47.2953719 123.80150169 -47.29601073 129.400913 C-47.2967229 132.90453801 -47.29886038 136.40815917 -47.30150795 139.91178322 C-47.3107526 152.15003327 -47.314844 164.38827245 -47.3140564 176.62652588 C-47.31345605 188.00935301 -47.32400163 199.39213269 -47.33980006 210.77494782 C-47.35290461 220.56805063 -47.35823906 230.36113799 -47.35760099 240.15424949 C-47.35734683 245.99410759 -47.36015245 251.8339235 -47.37077904 257.67377281 C-47.38050899 263.17069783 -47.3805058 268.66754074 -47.37326241 274.16446877 C-47.37222259 276.17268113 -47.3745433 278.18089874 -47.38062286 280.18910217 C-47.69264741 306.64660428 -47.69264741 306.64660428 -35.12875366 329.14044189 C-27.32119182 335.67730995 -19.27982168 339.30944131 -9.13851929 340.31176758 C-8.36942482 340.39151062 -7.60033035 340.47125366 -6.80792999 340.55341315 C3.78125179 341.54075582 14.40292223 341.41982494 25.02749634 341.39923096 C27.40485745 341.40194722 29.78221771 341.40551169 32.15957642 341.40985107 C38.56449482 341.41890177 44.96934816 341.41546126 51.37426758 341.4090929 C55.38636797 341.40605545 59.39845266 341.40621633 63.41055298 341.40807343 C64.08010529 341.40837989 64.7496576 341.40868636 65.43949938 341.40900211 C66.80039661 341.40964167 68.16129383 341.4102901 69.52219105 341.41094729 C82.23297959 341.41662743 94.94373911 341.41012929 107.6545229 341.39934656 C118.52104939 341.39041317 129.38753312 341.39196587 140.25405884 341.40118408 C152.92460583 341.4119279 165.59512749 341.41607832 178.26567841 341.40995955 C179.62109883 341.40932257 180.97651926 341.40869383 182.3319397 341.40807343 C182.99854001 341.40776487 183.66514031 341.40745632 184.35194063 341.40713842 C189.011458 341.40542377 193.67095865 341.40839962 198.33047485 341.41303253 C204.62122498 341.41885157 210.91189514 341.41472647 217.20263672 341.40324402 C219.49782174 341.40062165 221.7930136 341.40132052 224.0881958 341.40576935 C254.56710947 342.34449308 254.56710947 342.34449308 280.87124634 329.14044189 C294.16768479 314.58207294 293.17114073 295.82103678 293.1300354 277.31231689 C293.1327507 275.24432248 293.13631464 273.17632904 293.14065552 271.1083374 C293.14971768 265.52986751 293.14626089 259.95147218 293.13989735 254.3730011 C293.13480522 248.51260184 293.13953768 242.65220862 293.14266968 236.79180908 C293.1463 226.95358137 293.14153478 217.11538377 293.13198853 207.27716064 C293.1211058 195.93114687 293.12463204 184.585205 293.13564134 173.23919296 C293.14474087 163.46721663 293.14598647 153.69526183 293.140764 143.92328262 C293.13765894 138.10027133 293.13719448 132.27729374 293.14383698 126.45428467 C293.14964871 120.97780521 293.145544 115.50141773 293.13404846 110.02494812 C293.13142224 108.02479708 293.13213174 106.02463819 293.13657379 104.02449036 C293.4253323 77.6019886 293.4253323 77.6019886 280.87124634 55.14044189 C273.0636845 48.60357384 265.02231436 44.97144248 254.88101196 43.96911621 C254.1119175 43.88937317 253.34282303 43.80963013 252.55042267 43.72747064 C241.96124088 42.74012797 231.33957045 42.86105885 220.71499634 42.88165283 C218.33763523 42.87893657 215.96027496 42.87537209 213.58291626 42.87103271 C207.17799786 42.86198202 200.77314451 42.86542253 194.3682251 42.87179089 C190.35612471 42.87482834 186.34404002 42.87466746 182.3319397 42.87281036 C181.66238739 42.8725039 180.99283507 42.87219743 180.3029933 42.87188168 C178.94209607 42.87124212 177.58119885 42.87059369 176.22030163 42.8699365 C163.50951308 42.86425636 150.79875356 42.8707545 138.08796978 42.88153723 C127.22144329 42.89047062 116.35495956 42.88891792 105.48843384 42.87969971 C92.81788685 42.86895589 80.14736518 42.86480546 67.47681427 42.87092423 C66.12139384 42.87156122 64.76597341 42.87218996 63.41055298 42.87281036 C62.74395267 42.87311891 62.07735236 42.87342747 61.39055204 42.87374537 C56.73103468 42.87546002 52.07153403 42.87248417 47.41201782 42.86785126 C41.1212677 42.86203222 34.83059753 42.86615731 28.53985596 42.87763977 C26.24467094 42.88026214 23.94947908 42.87956327 21.65429688 42.87511444 C-9.54713657 42.00000192 -9.54713657 42.00000192 -36.12875366 56.14044189 Z " fill="#FE9A00" transform="translate(133.12875366210938,63.85955810546875)"/>
<path d="M0 0 C5.36696315 4.63187099 9.53062477 9.48674518 10.9375 16.5625 C11.42302179 23.84532684 10.11510634 29.14054718 6.1875 35.3125 C1.28041777 40.21958223 -3.96880831 42.35625389 -10.8125 42.8125 C-18.81978605 42.64969012 -23.89742059 39.10098739 -29.9921875 34.21484375 C-35.74264683 29.62532621 -40.49899061 28.95825829 -47.7421875 29.15625 C-55.79326605 30.14132314 -61.57671301 34.13529542 -66.59375 40.37109375 C-73.69057281 50.95970437 -74.82638841 63.5411671 -72.4140625 75.87890625 C-69.30463992 85.22046212 -63.96250997 92.19269028 -55.17578125 96.6875 C-48.73739872 99.35329979 -42.05253591 99.65966445 -35.5625 97 C-31.32136552 94.93133475 -27.79141886 92.19184229 -24.203125 89.1484375 C-18.33005472 84.7972212 -12.11165976 84.83833404 -5.0625 85.5625 C1.17806319 87.29656664 5.39906868 91.24321344 8.9375 96.5625 C11.67543134 102.41171695 11.81208522 108.46426874 9.875 114.5625 C5.00960022 125.95953236 -6.97440767 133.49213591 -17.875 138.4375 C-35.59712419 145.22120052 -54.52787581 145.22120052 -72.25 138.4375 C-91.5852581 129.66307581 -105.45840156 114.10894735 -113.0703125 94.44921875 C-121.15892679 70.91580945 -120.06697071 46.86558405 -109.27416992 24.47045898 C-106.25247592 18.54894156 -102.59916161 13.43448008 -98.0625 8.5625 C-97.258125 7.69625 -96.45375 6.83 -95.625 5.9375 C-94.779375 5.15375 -93.93375 4.37 -93.0625 3.5625 C-92.48757812 2.97082031 -91.91265625 2.37914062 -91.3203125 1.76953125 C-66.43241917 -22.50790432 -26.41379546 -20.50870331 0 0 Z " fill="#FE9B00" transform="translate(235.0625,196.4375)"/>
<path d="M0 0 C6.02977657 4.74753606 12.2232001 9.82997867 13.71484375 17.72265625 C14.39244404 24.87633796 14.10798552 30.83507329 9.71484375 36.72265625 C4.71910352 42.15386052 -0.2293981 44.71705873 -7.66015625 45.03515625 C-15.78826002 44.79008779 -20.49376421 41.79051724 -26.34765625 36.37109375 C-30.93257224 32.47021764 -36.3180777 31.03129824 -42.28515625 30.72265625 C-50.22260074 31.39383722 -56.4397519 34.89434258 -62.04296875 40.47265625 C-69.1462955 49.03948249 -70.98806619 59.21229556 -70.67578125 70.09765625 C-69.51722605 80.84904846 -64.6611799 89.29192577 -56.421875 96.17578125 C-50.63501749 100.36516987 -44.35082379 101.77705261 -37.28515625 100.72265625 C-30.52082873 98.79863465 -25.18003578 94.66188711 -19.66796875 90.4296875 C-14.24423629 86.54416113 -7.68714436 87.05594033 -1.28515625 87.72265625 C5.03750315 90.05470232 9.96797548 95.01363665 12.82421875 101.078125 C14.75869731 106.8221688 14.70272571 113.33994266 12.21484375 118.91015625 C5.1538003 130.96559629 -8.33713035 138.54932559 -21.28515625 142.72265625 C-39.5135944 147.45162337 -58.42423376 146.79800674 -75.28515625 137.72265625 C-79.13326049 135.26256269 -82.72353577 132.57856865 -86.28515625 129.72265625 C-86.99414062 129.17867187 -87.703125 128.6346875 -88.43359375 128.07421875 C-103.40275901 115.94505322 -112.0492651 96.50750074 -115.03515625 77.78515625 C-115.14972257 76.43327372 -115.22788081 75.07817509 -115.28515625 73.72265625 C-115.33671875 72.66046875 -115.38828125 71.59828125 -115.44140625 70.50390625 C-116.04099243 46.72032124 -108.97076856 25.5500329 -92.53515625 8.00390625 C-67.31586635 -17.56565157 -29.39216336 -20.37530468 0 0 Z " fill="#FE9B00" transform="translate(381.28515625,194.27734375)"/>
</svg>
