<?xml version="1.0" encoding="UTF-8"?>
<svg version="1.1" xmlns="http://www.w3.org/2000/svg" width="1024" height="229">
<path d="M0 0 C2.5 2.75 2.5 2.75 4 5 C6.74722498 3.83771251 8.44429284 2.59703673 10.6875 0.5625 C15.55830118 -3.56177135 21.19332458 -5.38773481 27.5625 -4.9375 C33.76522309 -3.91995031 38.3729278 -1.6270722 42.8125 2.8125 C47.60499598 9.79585128 48.43176711 15.00502142 48.29296875 23.30859375 C48.28872391 24.27531509 48.28447906 25.24203644 48.28010559 26.23805237 C48.26340522 29.30482649 48.22576899 32.3709268 48.1875 35.4375 C48.172442 37.52538109 48.15875555 39.61327255 48.14648438 41.70117188 C48.11352999 46.80103815 48.06180751 51.9004051 48 57 C42.39 57 36.78 57 31 57 C30.96261719 54.31488281 30.92523438 51.62976563 30.88671875 48.86328125 C30.8404726 46.25520809 30.78925023 43.64727669 30.73754883 41.03930664 C30.70434886 39.23047542 30.67630159 37.42154182 30.65356445 35.61254883 C30.61992742 33.00818367 30.56760805 30.4047524 30.51171875 27.80078125 C30.50532883 26.99538406 30.4989389 26.18998688 30.49235535 25.36018372 C30.37308952 20.77847658 29.95151595 17.72863539 27 14 C23.547912 12.273956 19.78158433 12.64016066 16 13 C12.8421115 14.27659322 11.48445488 15.08180896 9.89697266 18.09057617 C8.73799745 21.84983245 8.64506181 25.46481406 8.5859375 29.36328125 C8.56657135 30.15526413 8.5472052 30.94724701 8.5272522 31.76322937 C8.46772768 34.27954519 8.42118042 36.79590744 8.375 39.3125 C8.33679519 41.0241079 8.29774201 42.73569709 8.2578125 44.44726562 C8.16045965 48.6314101 8.08067783 52.81536815 8 57 C2.72 57 -2.56 57 -8 57 C-8.04898438 54.710625 -8.09796875 52.42125 -8.1484375 50.0625 C-8.20259541 47.82171632 -8.25984434 45.58103116 -8.31738281 43.34033203 C-8.35543978 41.79450965 -8.39033132 40.24860572 -8.421875 38.70263672 C-8.46803654 36.46812982 -8.5259398 34.23417329 -8.5859375 32 C-8.59748871 31.31945557 -8.60903992 30.63891113 -8.62094116 29.93774414 C-8.78269948 24.56405569 -9.32478776 18.73324103 -12.1875 14.0625 C-15.1518299 12.32478937 -17.58104609 12.11396513 -21 12 C-25.09982667 13.07238927 -27.59257349 14.38886024 -30 18 C-30.24144163 20.96884465 -30.37307097 23.851868 -30.4140625 26.82421875 C-30.43342865 27.68561966 -30.4527948 28.54702057 -30.4727478 29.43452454 C-30.5325203 32.18541568 -30.57891948 34.93634873 -30.625 37.6875 C-30.66318194 39.55275261 -30.7022338 41.41798763 -30.7421875 43.28320312 C-30.83985744 47.85537714 -30.9194436 52.42736413 -31 57 C-36.94 57 -42.88 57 -49 57 C-49 37.53 -49 18.06 -49 -2 C-44.05 -2 -39.1 -2 -34 -2 C-34 0.31 -34 2.62 -34 5 C-33.45472656 4.52949219 -32.90945312 4.05898437 -32.34765625 3.57421875 C-21.94205786 -5.01707017 -11.78395317 -7.92549063 0 0 Z " fill="#FDFDFD" transform="translate(258,81)"/>
<path d="M0 0 C0 5.28 0 10.56 0 16 C4.95 16 9.9 16 15 16 C15.09765625 25.27734375 15.09765625 25.27734375 15 28 C14 29 14 29 10.83984375 29.09765625 C9.55207031 29.08605469 8.26429688 29.07445313 6.9375 29.0625 C5.00197266 29.04896484 5.00197266 29.04896484 3.02734375 29.03515625 C2.02832031 29.02355469 1.02929688 29.01195313 0 29 C0.32195034 44.1539738 0.32195034 44.1539738 3 59 C6.42932071 60.71466036 10.21716065 60.05404056 14 60 C14 64.95 14 69.9 14 75 C-3.58735178 75.57628458 -3.58735178 75.57628458 -10 72 C-14.02720734 67.97279266 -15.86840503 64.08471907 -16.22705078 58.40307617 C-16.22673734 57.03299955 -16.21562943 55.66289476 -16.1953125 54.29296875 C-16.1924826 53.56757401 -16.18965271 52.84217926 -16.18673706 52.09480286 C-16.17559799 49.79219632 -16.15050566 47.48998773 -16.125 45.1875 C-16.11496206 43.62044835 -16.10583763 42.05339057 -16.09765625 40.48632812 C-16.0756793 36.65740022 -16.04119339 32.82876744 -16 29 C-18.97 29 -21.94 29 -25 29 C-25 27.02 -25 25.04 -25 23 C-25.66 23 -26.32 23 -27 23 C-27.28875 23.928125 -27.5775 24.85625 -27.875 25.8125 C-29 29 -29 29 -31 32 C-31.64066406 31.7834375 -32.28132812 31.566875 -32.94140625 31.34375 C-39.81651574 29.1306 -45.39665416 27.62218532 -52.25 30.6875 C-55.71381006 32.61035007 -57.53545641 34.20941659 -59 38 C-60.53192564 44.02557418 -59.917596 48.11585917 -57.3515625 53.7890625 C-55.19422769 57.31811309 -52.98209916 58.92848095 -49 60 C-42.14722732 60.96438026 -36.33976195 59.57265702 -30 57 C-29.13372601 58.59766103 -28.28233535 60.20339944 -27.4375 61.8125 C-26.72400391 63.15248047 -26.72400391 63.15248047 -25.99609375 64.51953125 C-25 67 -25 67 -26 70 C-34.90533663 75.23131829 -45.15641464 77.514914 -55.25 74.9375 C-64.18940984 71.78072606 -70.8950472 65.32697549 -75.3125 57 C-78.48139391 49.32998332 -78.1993006 40.38434455 -75.4375 32.625 C-71.11396537 23.38628915 -64.09101288 17.45983212 -54.75 13.6875 C-44.82896835 11.8686442 -34.58689237 12.27540509 -26 18 C-25.67 17.34 -25.34 16.68 -25 16 C-22.03 16 -19.06 16 -16 16 C-16 11.38 -16 6.76 -16 2 C-2.25 0 -2.25 0 0 0 Z " fill="#05FB9A" transform="translate(944,63)"/>
<path d="M0 0 C7.54851122 4.41563238 13.28115041 11.14050283 15.75 19.625 C17.82611968 29.96528542 16.61323696 40.12245989 10.96484375 49.171875 C6.05954035 55.34119275 -0.83277316 59.26342519 -8.5625 60.8125 C-17.85599582 61.44256751 -23.81812899 58.97541401 -31.5625 53.8125 C-31.5625 62.0625 -31.5625 70.3125 -31.5625 78.8125 C-37.1725 78.8125 -42.7825 78.8125 -48.5625 78.8125 C-48.5625 52.7425 -48.5625 26.6725 -48.5625 -0.1875 C-43.6125 -0.1875 -38.6625 -0.1875 -33.5625 -0.1875 C-33.5625 2.1225 -33.5625 4.4325 -33.5625 6.8125 C-32.9025 6.8125 -32.2425 6.8125 -31.5625 6.8125 C-31.2325 5.8225 -30.9025 4.8325 -30.5625 3.8125 C-28.8203125 2.4609375 -28.8203125 2.4609375 -26.6875 1.1875 C-25.98882812 0.76210937 -25.29015625 0.33671875 -24.5703125 -0.1015625 C-17.30793419 -4.02946361 -7.30775919 -3.510806 0 0 Z M-26.875 16.125 C-30.86328239 20.11328239 -31.85844916 23.67691596 -31.9375 29.25 C-31.83695137 34.23721197 -30.98554219 37.0193992 -27.5625 40.8125 C-23.83247313 44.17862181 -21.32190241 45.67971491 -16.25 46.0625 C-10.89819763 45.69966594 -7.84300637 44.23143949 -4.25 40.25 C-0.49476007 34.82576454 -1.00999668 29.25069843 -1.5625 22.8125 C-2.77425046 18.92041022 -4.71542057 16.48124691 -7.9375 13.9375 C-14.83268327 10.98242145 -20.84682453 11.47553133 -26.875 16.125 Z " fill="#FDFDFD" transform="translate(366.5625,79.1875)"/>
<path d="M0 0 C0.77754639 -0.00950684 1.55509277 -0.01901367 2.35620117 -0.02880859 C6.58275767 -0.0041213 9.83028772 0.30984532 13.6875 2.25 C11.39797517 5.7723459 9.03077496 9.22507224 6.5625 12.625 C6.06492187 13.31335938 5.56734375 14.00171875 5.0546875 14.7109375 C4.37792969 15.47277344 4.37792969 15.47277344 3.6875 16.25 C3.0275 16.25 2.3675 16.25 1.6875 16.25 C1.6875 15.59 1.6875 14.93 1.6875 14.25 C-9.61559788 15.74918925 -20.94514451 17.9205917 -29.3125 26.25 C-34.68827511 33.31492141 -36.12132049 39.42230212 -35.3125 48.25 C-33.60274638 55.45980444 -30.52907699 60.2251649 -24.3125 64.25 C-17.77961202 68.24972733 -10.80254069 67.99900407 -3.3125 67.25 C4.2057314 65.4002764 8.70009847 62.09094482 13.4375 56 C15.56890986 51.31089831 15.6875 46.35015471 15.6875 41.25 C17.23217773 39.34887695 17.23217773 39.34887695 19.37109375 37.23828125 C20.13357422 36.48095703 20.89605469 35.72363281 21.68164062 34.94335938 C22.89110352 33.76483398 22.89110352 33.76483398 24.125 32.5625 C25.32866211 31.36657227 25.32866211 31.36657227 26.55664062 30.14648438 C32.53382966 24.25 32.53382966 24.25 33.6875 24.25 C36.90242217 37.45509355 35.54957416 50.54054454 28.6875 62.25 C21.71622721 73.12128554 11.94876923 81.27204291 -0.6875 84.5625 C-11.95056687 86.59775594 -23.26939407 85.64101225 -33.14453125 79.484375 C-42.90408171 72.05131408 -50.54691521 61.63062507 -52.3125 49.25 C-53.32552384 38.58255197 -51.54209623 28.16492949 -45.125 19.375 C-33.27154132 5.66708902 -17.66138756 0.17994821 0 0 Z " fill="#08F993" transform="translate(563.3125,54.75)"/>
<path d="M0 0 C2.84747523 1.81848107 5.46738194 3.76533701 8 6 C6.44298069 10.67105792 3.91552627 14.08705685 1 18 C-5 16 -5 16 -6.98046875 15.19921875 C-14.54054984 12.29361381 -22.67712177 11.5851154 -30.4375 14.25 C-36.68669248 17.31977876 -40.08639036 20.51132346 -43.046875 26.81640625 C-45.31017318 34.37619319 -45.66819478 44.39736699 -42.4375 51.6875 C-38.22392926 58.23541829 -32.8879429 61.65118221 -25.39453125 63.52734375 C-18.27691663 64.93228889 -12.84506686 63.21232025 -6.0859375 60.97265625 C-3.39145579 60.1233829 -0.77849071 59.49062568 2 59 C3.03320481 60.59622656 4.05122429 62.20229106 5.0625 63.8125 C5.63097656 64.70582031 6.19945312 65.59914063 6.78515625 66.51953125 C8 69 8 69 7 72 C-2.92341207 80.30326316 -15.73549814 81.51845144 -28.2109375 80.8203125 C-39.0008964 79.4326275 -48.44268157 75.0326585 -55.31640625 66.47265625 C-63.32312481 54.7133689 -65.01338011 42.33951801 -62.7578125 28.44921875 C-60.2812515 17.17703649 -53.48996021 7.58282451 -44 1 C-30.57290411 -5.67310488 -13.62261457 -6.83201035 0 0 Z " fill="#FDFDFD" transform="translate(132,59)"/>
<path d="M0 0 C4.65631907 3.88026589 7.09954985 7.31752823 8.625 13.1875 C8.88716947 16.59402791 8.85815568 19.98357984 8.8203125 23.3984375 C8.8174826 24.36657379 8.81465271 25.33471008 8.81173706 26.33218384 C8.80058696 29.40908428 8.7754918 32.48568828 8.75 35.5625 C8.73996352 37.6549437 8.73083884 39.74739198 8.72265625 41.83984375 C8.70066453 46.95584251 8.66617025 52.07162108 8.625 57.1875 C4.335 57.1875 0.045 57.1875 -4.375 57.1875 C-5.365 55.2075 -6.355 53.2275 -7.375 51.1875 C-7.88289063 51.59742188 -8.39078125 52.00734375 -8.9140625 52.4296875 C-16.17793928 58.11564348 -22.12737662 60.10225718 -31.375 59.1875 C-38.69643145 57.5576857 -43.26335996 53.39460397 -47.375 47.1875 C-48.63917927 42.41082262 -48.6450638 38.20023924 -47.375 33.4375 C-44.05252926 28.03848505 -39.57964115 23.93752699 -33.375 22.1875 C-28.09995964 21.13086634 -22.85953374 20.8711834 -17.5 20.625 C-16.18128906 20.56022461 -16.18128906 20.56022461 -14.8359375 20.49414062 C-12.68244203 20.38880661 -10.52873936 20.28772351 -8.375 20.1875 C-9.31413073 15.2458119 -9.31413073 15.2458119 -12.5 11.75 C-21.41344676 10.00606477 -29.41648215 11.9891993 -37.375 16.1875 C-38.24416887 14.77998779 -39.09485149 13.3610479 -39.9375 11.9375 C-40.65099609 10.75414063 -40.65099609 10.75414063 -41.37890625 9.546875 C-42.375 7.1875 -42.375 7.1875 -42.3046875 5.0546875 C-40.30615401 1.04082612 -35.3469181 -0.25779347 -31.375 -1.8125 C-21.08737372 -4.82012687 -9.64113616 -5.1776472 0 0 Z M-30.375 34.9375 C-31.76855322 38.07299474 -31.36147049 39.94623983 -30.375 43.1875 C-26.12304276 46.02213816 -22.3680674 45.83302117 -17.375 45.1875 C-13.9333853 43.53360858 -13.9333853 43.53360858 -11.375 41.1875 C-10.776875 40.754375 -10.17875 40.32125 -9.5625 39.875 C-7.68377937 37.2052391 -7.6755544 34.37337661 -7.375 31.1875 C-19.62051007 30.24147029 -19.62051007 30.24147029 -30.375 34.9375 Z " fill="#FDFDFD" transform="translate(190.375,80.8125)"/>
<path d="M0 0 C5.55519214 4.14851259 8.46770666 9.64709569 9.8203125 16.359375 C10.0839445 19.56853625 10.07774878 22.75810917 10.05078125 25.9765625 C10.05032303 26.87432404 10.04986481 27.77208557 10.0493927 28.697052 C10.04638732 30.58125136 10.03855283 32.46544862 10.02612305 34.34960938 C10.00773756 37.24618216 10.00561448 40.14243715 10.00585938 43.0390625 C10.00094842 44.87239862 9.99512196 46.70573257 9.98828125 48.5390625 C9.98716843 49.40876678 9.9860556 50.27847107 9.98490906 51.17453003 C9.93640158 57.24328592 9.93640158 57.24328592 8.8203125 58.359375 C6.12376396 58.43257121 3.45339792 58.45180037 0.7578125 58.421875 C-0.38010742 58.41510742 -0.38010742 58.41510742 -1.54101562 58.40820312 C-3.42060621 58.3963818 -5.30015649 58.37844578 -7.1796875 58.359375 C-7.2094165 56.71739136 -7.2094165 56.71739136 -7.23974609 55.04223633 C-7.31598187 50.96990471 -7.4046713 46.89792204 -7.49707031 42.82592773 C-7.53528591 41.06558129 -7.57015163 39.30515874 -7.6015625 37.54467773 C-7.64737464 35.00997775 -7.70534167 32.47579836 -7.765625 29.94140625 C-7.77717621 29.15788284 -7.78872742 28.37435944 -7.80062866 27.5670929 C-7.91129313 23.44348146 -8.14597512 19.99696821 -10.1796875 16.359375 C-15.15401063 13.21235424 -18.3919084 13.11864056 -24.06640625 14.328125 C-27.23654646 15.87510654 -28.39488765 17.28402756 -30.1796875 20.359375 C-30.80921381 23.85481323 -30.87707536 27.31373521 -30.9296875 30.859375 C-30.97416016 32.3285437 -30.97416016 32.3285437 -31.01953125 33.82739258 C-31.19671757 40.21611954 -31.25260559 46.60605257 -31.1171875 52.99609375 C-31.1796875 55.359375 -31.1796875 55.359375 -32.1796875 58.359375 C-34.82558764 58.38622179 -37.47121846 58.40613857 -40.1171875 58.421875 C-40.87193359 58.43025391 -41.62667969 58.43863281 -42.40429688 58.44726562 C-44.32963063 58.45589941 -46.25504331 58.41161833 -48.1796875 58.359375 C-49.1796875 57.359375 -49.1796875 57.359375 -49.29994202 55.03721619 C-49.29772141 54.00907303 -49.29550079 52.98092987 -49.29321289 51.92163086 C-49.29313736 50.76050278 -49.29306183 49.59937469 -49.29298401 48.40306091 C-49.28782272 47.139543 -49.28266144 45.87602509 -49.27734375 44.57421875 C-49.2759288 43.28826309 -49.27451385 42.00230743 -49.27305603 40.67738342 C-49.26923168 37.25294057 -49.25940212 33.82853991 -49.24835205 30.40411377 C-49.23813614 26.91199311 -49.23355803 23.41986566 -49.22851562 19.92773438 C-49.21777976 13.07159547 -49.20018364 6.2154916 -49.1796875 -0.640625 C-44.2296875 -0.640625 -39.2796875 -0.640625 -34.1796875 -0.640625 C-33.5196875 1.339375 -32.8596875 3.319375 -32.1796875 5.359375 C-30.8596875 4.699375 -29.5396875 4.039375 -28.1796875 3.359375 C-28.1796875 2.699375 -28.1796875 2.039375 -28.1796875 1.359375 C-26.93233183 0.7084491 -25.68166918 0.06385831 -24.4296875 -0.578125 C-23.73359375 -0.93777344 -23.0375 -1.29742187 -22.3203125 -1.66796875 C-15.08275426 -4.95656729 -6.858135 -3.83167057 0 0 Z " fill="#02FD97" transform="translate(788.1796875,79.640625)"/>
<path d="M0 0 C6.719589 5.49784555 10.72686659 12.52784579 12.5625 21 C13.41013381 30.54509375 10.50065424 38.71054778 4.75 46.25 C-1.36109345 53.04822596 -8.74466652 56.21187178 -17.75 57.125 C-27.73441259 57.57725562 -35.27047772 55.45190593 -43.25 49.25 C-50.39325836 41.8826911 -53.08874688 34.42360584 -53.25 24.25 C-52.63786161 14.59181644 -49.0045269 7.61252587 -42.0625 0.9375 C-29.10621789 -9.21818838 -13.6165861 -7.3320079 0 0 Z M-34.0625 14.3125 C-37.08242417 19.2397447 -36.79163455 24.66582408 -36.25 30.25 C-34.9383517 34.7770604 -33.02033766 37.56720071 -29.5 40.6875 C-24.13572577 43.26647799 -20.29813617 43.8748551 -14.5625 42.125 C-10.05937479 39.5760612 -7.14616191 37.17034696 -4.9375 32.4375 C-3.43275428 25.46095167 -3.80239268 20.55079958 -7.25 14.25 C-10.53231921 10.47533291 -12.66271831 8.49776167 -17.73828125 8.01171875 C-24.97240864 7.82161028 -29.09950934 8.6649589 -34.0625 14.3125 Z " fill="#07FA99" transform="translate(653.25,82.75)"/>
<path d="M0 0 C5.61 0 11.22 0 17 0 C17.04898437 2.60132812 17.09796875 5.20265625 17.1484375 7.8828125 C17.20251724 10.41476977 17.25979718 12.94663595 17.31738281 15.47851562 C17.35555888 17.23202671 17.39043124 18.98561308 17.421875 20.73925781 C17.46777359 23.26654886 17.5257257 25.79332678 17.5859375 28.3203125 C17.59748871 29.09867462 17.60903992 29.87703674 17.62094116 30.6789856 C17.74024503 35.12406759 18.22228831 38.84824028 20 43 C21.66682687 44.04675713 21.66682687 44.04675713 24 44 C25.299375 44.0825 26.59875 44.165 27.9375 44.25 C31.71888646 44.1936665 34.01701301 43.45657752 37 41 C39.65390884 37.21405329 39.34894297 32.96180681 39.4140625 28.515625 C39.43342865 27.70003113 39.4527948 26.88443726 39.4727478 26.04412842 C39.53239575 23.44619108 39.57886942 20.84820907 39.625 18.25 C39.66319342 16.48565806 39.70224595 14.72133449 39.7421875 12.95703125 C39.83969824 8.63811793 39.91938263 4.31939381 40 0 C45.61 0 51.22 0 57 0 C57 19.47 57 38.94 57 59 C52.05 59 47.1 59 42 59 C41.505 55.535 41.505 55.535 41 52 C40.59910156 52.39832031 40.19820313 52.79664063 39.78515625 53.20703125 C34.62737315 58.01394475 29.5939098 60.89590839 22.4140625 61.05859375 C13.93237524 60.46003624 9.14205636 57.5628192 3.515625 51.328125 C-0.36783284 45.36281347 -0.27574666 39.0059482 -0.1953125 32.12890625 C-0.1924826 31.206577 -0.18965271 30.28424774 -0.18673706 29.33396912 C-0.17560974 26.41000987 -0.15051912 23.48636549 -0.125 20.5625 C-0.11496057 18.57096799 -0.1058364 16.57943114 -0.09765625 14.58789062 C-0.07569483 9.7251405 -0.04121673 4.8626235 0 0 Z " fill="#FEFDFD" transform="translate(389,79)"/>
<path d="M0 0 C7.10271513 6.9225194 9.96504644 13.18513404 10.12939453 23.15356445 C10.13593066 24.72345686 10.13679926 26.2933803 10.1328125 27.86328125 C10.13376923 28.6958696 10.13472595 29.52845795 10.13571167 30.38627625 C10.13638908 32.13520382 10.13456554 33.88413397 10.13037109 35.63305664 C10.12498259 38.32118278 10.13034821 41.00914441 10.13671875 43.69726562 C10.13605856 45.39843787 10.13477861 47.09961001 10.1328125 48.80078125 C10.13483673 49.60800125 10.13686096 50.41522125 10.13894653 51.24690247 C10.11497358 56.88502642 10.11497358 56.88502642 9 58 C6.30345146 58.07319621 3.63308542 58.09242537 0.9375 58.0625 C-0.20041992 58.05573242 -0.20041992 58.05573242 -1.36132812 58.04882812 C-3.24091871 58.0370068 -5.12046899 58.01907078 -7 58 C-7.01458252 56.94087402 -7.02916504 55.88174805 -7.04418945 54.79052734 C-7.10237327 50.84292658 -7.17960407 46.89588429 -7.26245117 42.94873047 C-7.29560636 41.24374488 -7.32366737 39.53865202 -7.34643555 37.83349609 C-7.38015568 35.37551366 -7.43247794 32.91850594 -7.48828125 30.4609375 C-7.49467117 29.70444916 -7.5010611 28.94796082 -7.50764465 28.16854858 C-7.63788973 23.42903259 -8.38504101 20.10079249 -11 16 C-15.23967017 13.17355322 -19.02086859 13.34088053 -24 14 C-27.55680172 16.10504591 -28.69468936 17.08406808 -30 21 C-30.1539263 23.80160502 -30.25738045 26.58298425 -30.31640625 29.38671875 C-30.33718735 30.20372757 -30.35796844 31.02073639 -30.37937927 31.86250305 C-30.44473079 34.47075034 -30.50369273 37.07909775 -30.5625 39.6875 C-30.60569892 41.45639054 -30.64931365 43.22527097 -30.69335938 44.99414062 C-30.80117956 49.32932597 -30.90035972 53.66458802 -31 58 C-36.28 58 -41.56 58 -47 58 C-47 38.53 -47 19.06 -47 -1 C-42.71 -1 -38.42 -1 -34 -1 C-33.67 0.98 -33.34 2.96 -33 5 C-32.52691406 4.60167969 -32.05382812 4.20335938 -31.56640625 3.79296875 C-22.24565714 -3.674532 -10.71215721 -7.37948608 0 0 Z " fill="#0DF592" transform="translate(720,80)"/>
<path d="M0 0 C2.8125 2.4375 2.8125 2.4375 5 5 C5.70125 5.78375 6.4025 6.5675 7.125 7.375 C13.04849697 15.66789576 12.25172377 20.77585655 13 32 C-1.52 32 -16.04 32 -31 32 C-25.85614945 40.78128275 -25.85614945 40.78128275 -18 44 C-12.51445652 44.59842292 -7.85031385 43.56223101 -3 41 C-1.30001058 39.4729985 -1.30001058 39.4729985 0 38 C4.2742558 39.5830577 6.26531794 42.50568404 9 46 C6.87372039 51.19757238 2.73926368 53.33220256 -2 56 C-10.93795487 59.57518195 -20.24839442 58.68488656 -29 55 C-37.02446642 50.9553578 -41.8081105 45.54967766 -45.1015625 37.2109375 C-47.61015095 28.94350254 -47.38460851 20.86259647 -44.10546875 12.80078125 C-43.125 11 -43.125 11 -41 8 C-40.46375 7.154375 -39.9275 6.30875 -39.375 5.4375 C-29.24705519 -4.95696967 -12.52014386 -8.2397528 0 0 Z M-27 12 C-28.7234248 14.54156748 -29.9388818 17.1238112 -31 20 C-28.28598706 21.35700647 -26.15153684 21.1123861 -23.1171875 21.09765625 C-21.36728516 21.09282227 -21.36728516 21.09282227 -19.58203125 21.08789062 C-17.74705078 21.07532227 -17.74705078 21.07532227 -15.875 21.0625 C-14.02841797 21.05573242 -14.02841797 21.05573242 -12.14453125 21.04882812 C-9.09630608 21.0370133 -6.04817686 21.02054028 -3 21 C-2.67 20.34 -2.34 19.68 -2 19 C-3.89166448 13.88137847 -6.15314985 11.46915008 -11 9 C-16.98503818 7.07933557 -22.11230847 7.96657314 -27 12 Z " fill="#09F898" transform="translate(851,81)"/>
<path d="M0 0 C0.66 1.32 1.32 2.64 2 4 C0.02 6.97 -1.96 9.94 -4 13 C-8 12 -8 12 -11.0625 10.4375 C-15.80435695 8.33915115 -20.91087251 8.37601462 -26 9 C-26.99 9.66 -27.98 10.32 -29 11 C-28.67 12.65 -28.34 14.3 -28 16 C-27.18917969 16.24234375 -26.37835938 16.4846875 -25.54296875 16.734375 C-0.84886621 24.20872501 -0.84886621 24.20872501 3.375 31.3125 C4.83575311 37.59373839 4.53471605 42.49820788 1.38671875 48.109375 C-2.58207331 53.52034783 -7.94005619 56.72040815 -14.52734375 57.81640625 C-26.68983853 58.71946668 -38.51637028 55.75933341 -48 48 C-46.63629701 45.00779732 -45.05091917 42.70973471 -42.875 40.25 C-42.33617187 39.63640625 -41.79734375 39.0228125 -41.2421875 38.390625 C-40.62730469 37.70226562 -40.62730469 37.70226562 -40 37 C-38.03906426 37.95466609 -36.1336033 38.91680158 -34.28125 40.0703125 C-28.46632461 43.51336043 -22.65429879 43.88041492 -16 43 C-13.73650326 41.18314627 -13.73650326 41.18314627 -13.875 38.5625 C-14.8168954 35.67540549 -14.8168954 35.67540549 -18.125 34.4375 C-20.93289039 33.52353929 -23.74640066 32.82286069 -26.62109375 32.140625 C-40.67594528 28.78468859 -40.67594528 28.78468859 -45 23 C-47.42657841 18.34905806 -47.33505024 14.00160125 -46 9 C-43.43103098 2.73018948 -39.60309699 -0.6984515 -33.625 -3.6875 C-23.08340012 -7.50428616 -9.6605292 -5.99619054 0 0 Z " fill="#FDFDFD" transform="translate(502,82)"/>
<path d="M0 0 C0 5.28 0 10.56 0 16 C4.95 16 9.9 16 15 16 C15.09765625 25.27734375 15.09765625 25.27734375 15 28 C14 29 14 29 10.83984375 29.09765625 C9.55207031 29.08605469 8.26429688 29.07445313 6.9375 29.0625 C5.64714844 29.05347656 4.35679687 29.04445313 3.02734375 29.03515625 C2.02832031 29.02355469 1.02929688 29.01195313 0 29 C0.32195034 44.1539738 0.32195034 44.1539738 3 59 C6.42932071 60.71466036 10.21716065 60.05404056 14 60 C14 64.95 14 69.9 14 75 C-3.58735178 75.57628458 -3.58735178 75.57628458 -10 72 C-14.02720734 67.97279266 -15.86840503 64.08471907 -16.22705078 58.40307617 C-16.22673734 57.03299955 -16.21562943 55.66289476 -16.1953125 54.29296875 C-16.1924826 53.56757401 -16.18965271 52.84217926 -16.18673706 52.09480286 C-16.17559799 49.79219632 -16.15050566 47.48998773 -16.125 45.1875 C-16.11496206 43.62044835 -16.10583763 42.05339057 -16.09765625 40.48632812 C-16.0756793 36.65740022 -16.04119339 32.82876744 -16 29 C-18.97 29 -21.94 29 -25 29 C-25 24.71 -25 20.42 -25 16 C-22.03 16 -19.06 16 -16 16 C-16 11.38 -16 6.76 -16 2 C-2.25 0 -2.25 0 0 0 Z " fill="#FCFDFD" transform="translate(944,63)"/>
<path d="M0 0 C0.77754639 -0.00950684 1.55509277 -0.01901367 2.35620117 -0.02880859 C6.58275767 -0.0041213 9.83028772 0.30984532 13.6875 2.25 C11.39797517 5.7723459 9.03077496 9.22507224 6.5625 12.625 C6.06492187 13.31335938 5.56734375 14.00171875 5.0546875 14.7109375 C4.37792969 15.47277344 4.37792969 15.47277344 3.6875 16.25 C3.0275 16.25 2.3675 16.25 1.6875 16.25 C1.6875 15.59 1.6875 14.93 1.6875 14.25 C-9.33035931 15.71135656 -18.85388219 18.50894567 -28.4375 24.19921875 C-30.3125 25.25 -30.3125 25.25 -33.3125 26.25 C-33.3125 27.24 -33.3125 28.23 -33.3125 29.25 C-35.5 29.5625 -35.5 29.5625 -38.3125 29.25 C-41.35825642 26.68879574 -43.04756553 25.04480342 -44.3125 21.25 C-41.96814809 13.88203687 -35.66687331 10.08003887 -29.18359375 6.54296875 C-19.28252884 1.73855591 -10.88749127 0.11093039 0 0 Z " fill="#01FD48" transform="translate(563.3125,54.75)"/>
<path d="M0 0 C3.63 0 7.26 0 11 0 C11.33 2.64 11.66 5.28 12 8 C13.32 8 14.64 8 16 8 C16.33 8.99 16.66 9.98 17 11 C16.67 11.66 16.34 12.32 16 13 C16.66 13 17.32 13 18 13 C18 13.66 18 14.32 18 15 C16.68 15 15.36 15 14 15 C14.33 16.65 14.66 18.3 15 20 C14.34 20 13.68 20 13 20 C13 31.88 13 43.76 13 56 C9.04 56 5.08 56 1 56 C0.09383235 43.46382951 -0.12461938 31.00319642 -0.0625 18.4375 C-0.05746671 16.63606898 -0.05290709 14.83463656 -0.04882812 13.03320312 C-0.03798636 8.68876677 -0.02082646 4.34439949 0 0 Z M17 8 C17.66 8.66 18.32 9.32 19 10 C18.34 10 17.68 10 17 10 C17 9.34 17 8.68 17 8 Z " fill="#01FD8D" transform="translate(674,80)"/>
<path d="M0 0 C3.21059046 13.18730129 1.88000203 26.31300966 -5 38 C-7.91426599 42.38984371 -10.59443432 46.06295621 -15 49 C-17.625 48.75 -17.625 48.75 -20 48 C-20.33 47.34 -20.66 46.68 -21 46 C-22.97888961 45.27306096 -24.97954558 44.60183749 -27 44 C-27.3125 41.8125 -27.3125 41.8125 -27 39 C-24.6875 36.5 -24.6875 36.5 -22 34 C-18.06342043 28.93868341 -18 23.19917732 -18 17 C-16.45532227 15.09887695 -16.45532227 15.09887695 -14.31640625 12.98828125 C-13.17268555 11.85229492 -13.17268555 11.85229492 -12.00585938 10.69335938 C-11.19955078 9.90767578 -10.39324219 9.12199219 -9.5625 8.3125 C-8.35883789 7.11657227 -8.35883789 7.11657227 -7.13085938 5.89648438 C-1.15367034 0 -1.15367034 0 0 0 Z " fill="#01FD5E" transform="translate(597,79)"/>
<path d="M0 0 C9.14973228 -0.42447212 17.41576367 -0.20896543 25.125 5.1875 C26.053125 6.0846875 26.053125 6.0846875 27 7 C26.67 7.99 26.34 8.98 26 10 C25.34 10 24.68 10 24 10 C23.566875 11.3921875 23.566875 11.3921875 23.125 12.8125 C22 16 22 16 20 19 C19.35933594 18.7834375 18.71867188 18.566875 18.05859375 18.34375 C11.87056757 16.35177734 6.67468887 15.18340247 0.1875 16.625 C-0.534375 16.74875 -1.25625 16.8725 -2 17 C-4.35953094 14.64046906 -4.49141413 13.22104383 -5 10 C-5.99 10 -6.98 10 -8 10 C-7.38722388 7.03824877 -6.74627478 5.61941217 -5 3 C-2.375 2.8125 -2.375 2.8125 0 3 C0 2.01 0 1.02 0 0 Z " fill="#02FC56" transform="translate(893,76)"/>
<path d="M0 0 C4.95 0 9.9 0 15 0 C16.39195915 4.17587745 14.82323219 6.13474776 13 10 C11.948125 10.00386719 11.948125 10.00386719 10.875 10.0078125 C4.56007492 10.26521434 0.4051666 11.18106584 -4.47265625 15.30078125 C-6.58446832 17.6502397 -7.41386773 19.92280559 -8 23 C-11.58782375 24.26629073 -12.7957201 24.09635844 -16.3125 22.4375 C-19 20 -19 20 -19.6875 17.0625 C-18.56761491 12.07392097 -15.41589493 9.95490588 -11.3125 7.1875 C-9 6 -9 6 -7 6 C-6.34 4.68 -5.68 3.36 -5 2 C-3.35 2 -1.7 2 0 2 C0 1.34 0 0.68 0 0 Z " fill="#01FD54" transform="translate(625,79)"/>
<path d="M0 0 C0.7425 -0.01611328 1.485 -0.03222656 2.25 -0.04882812 C7.11387754 -0.05312484 10.40034204 0.66656325 14.625 3.3125 C17.0625 5.8125 17.0625 5.8125 18.625 8.3125 C17.48780581 11.72408256 16.58157056 12.43104601 13.625 14.3125 C12.965 14.3125 12.305 14.3125 11.625 14.3125 C11.625 13.6525 11.625 12.9925 11.625 12.3125 C7.005 11.3225 2.385 10.3325 -2.375 9.3125 C-2.375 9.9725 -2.375 10.6325 -2.375 11.3125 C-3.54869141 11.49425781 -3.54869141 11.49425781 -4.74609375 11.6796875 C-5.75800781 11.84726563 -6.76992188 12.01484375 -7.8125 12.1875 C-8.82183594 12.34992188 -9.83117187 12.51234375 -10.87109375 12.6796875 C-11.69738281 12.88851562 -12.52367187 13.09734375 -13.375 13.3125 C-13.705 13.9725 -14.035 14.6325 -14.375 15.3125 C-15.365 15.3125 -16.355 15.3125 -17.375 15.3125 C-18.98225635 12.09798731 -18.43248185 8.87637464 -18.375 5.3125 C-17.75625 5.18875 -17.1375 5.065 -16.5 4.9375 C-14.18379168 4.44052644 -14.18379168 4.44052644 -12.375 2.3125 C-8.57763059 -0.30861108 -4.43940276 -0.0190696 0 0 Z " fill="#01FC5C" transform="translate(834.375,78.6875)"/>
<path d="M0 0 C3.63 0 7.26 0 11 0 C11.1953125 6.8359375 11.1953125 6.8359375 11 9 C10.34 9.66 9.68 10.32 9 11 C8.66270707 13.14541361 8.66270707 13.14541361 8.65625 15.61328125 C8.62660156 16.53173828 8.59695313 17.45019531 8.56640625 18.39648438 C8.54449219 19.35876953 8.52257812 20.32105469 8.5 21.3125 C8.23585553 32.7717087 8.23585553 32.7717087 6 37 C5.34 37 4.68 37 4 37 C3.34 38.32 2.68 39.64 2 41 C0 39 0 39 -0.22705078 35.19287109 C-0.22673346 33.5530258 -0.21539681 31.91315983 -0.1953125 30.2734375 C-0.1924826 29.41062164 -0.18965271 28.54780579 -0.18673706 27.65884399 C-0.17552333 24.8974228 -0.15041684 22.1363235 -0.125 19.375 C-0.11497173 17.50521301 -0.10584562 15.63542095 -0.09765625 13.765625 C-0.07558012 9.17695891 -0.04104234 4.58853407 0 0 Z " fill="#01FE77" transform="translate(674,80)"/>
<path d="M0 0 C0.86627399 1.59766103 1.71766465 3.20339944 2.5625 4.8125 C3.03816406 5.70582031 3.51382813 6.59914063 4.00390625 7.51953125 C5 10 5 10 4 13 C-4.67359109 18.09518254 -14.87376696 20.46200732 -24.75 18.0625 C-26.35875 17.5365625 -26.35875 17.5365625 -28 17 C-25.92446352 16.4465236 -24.15634036 16 -22 16 C-21.8453125 15.1028125 -21.8453125 15.1028125 -21.6875 14.1875 C-20.8967321 11.67142032 -19.91571363 10.76245654 -18 9 C-17.34 8.01 -16.68 7.02 -16 6 C-18.31 5.67 -20.62 5.34 -23 5 C-23.33 3.68 -23.66 2.36 -24 1 C-23.38125 1.33 -22.7625 1.66 -22.125 2 C-13.12460587 4.88012612 -8.09821187 0 0 0 Z " fill="#1AED74" transform="translate(914,120)"/>
<path d="M0 0 C0.91936842 2.33204895 1.16475602 3.52498678 0.33569336 5.9152832 C-2.77689721 10.71035516 -2.77689721 10.71035516 -6.10107422 11.49755859 C-8.57846943 11.54578923 -10.97004773 11.41354066 -13.4375 11.1875 C-20.1832293 10.61094427 -20.1832293 10.61094427 -26.48046875 12.78515625 C-29.31382338 15.27587265 -30.58053183 17.53018891 -32 21 C-32.33 21 -32.66 21 -33 21 C-33.2421875 18.734375 -33.2421875 18.734375 -33 16 C-31.3203125 14.015625 -31.3203125 14.015625 -29.125 12.25 C-28.04605469 11.36054687 -28.04605469 11.36054687 -26.9453125 10.453125 C-23.70337546 8.03143709 -21.37705686 7.76324881 -17.375 7.4375 C-16.37210938 7.35371094 -15.36921875 7.26992187 -14.3359375 7.18359375 C-13.56507813 7.12300781 -12.79421875 7.06242187 -12 7 C-11.34 4.36 -10.68 1.72 -10 -1 C-14.95 -1.33 -19.9 -1.66 -25 -2 C-25 -1.34 -25 -0.68 -25 0 C-26.3921875 0.4021875 -26.3921875 0.4021875 -27.8125 0.8125 C-30.91719763 1.96915206 -31.85325853 2.66658536 -34 5 C-34.825 5.474375 -35.65 5.94875 -36.5 6.4375 C-39.07248206 8.04530129 -40.24687951 9.57902409 -42 12 C-42.66 12 -43.32 12 -44 12 C-43.66132538 16.48684201 -43.66132538 16.48684201 -40.9375 19.875 C-40.298125 20.24625 -39.65875 20.6175 -39 21 C-41.31 20.67 -43.62 20.34 -46 20 C-46.86384126 17.29329738 -47.26948608 15.77621506 -47 13 C-42.88201959 5.09238314 -35.82956447 0.08334153 -27.8125 -3.375 C-18.64743082 -4.87747036 -7.97780676 -5.631393 0 0 Z " fill="#0EF573" transform="translate(650,81)"/>
<path d="M0 0 C0.78955078 -0.01224609 1.57910156 -0.02449219 2.39257812 -0.03710938 C6.70045628 -0.04794226 10.01035658 0.18837065 13.9375 2.1875 C11.64797517 5.7098459 9.28077496 9.16257224 6.8125 12.5625 C6.31492187 13.25085938 5.81734375 13.93921875 5.3046875 14.6484375 C4.62792969 15.41027344 4.62792969 15.41027344 3.9375 16.1875 C3.2775 16.1875 2.6175 16.1875 1.9375 16.1875 C1.9375 15.5275 1.9375 14.8675 1.9375 14.1875 C0.2875 14.1875 -1.3625 14.1875 -3.0625 14.1875 C-3.0625 13.8575 -3.0625 13.5275 -3.0625 13.1875 C0.4025 12.6925 0.4025 12.6925 3.9375 12.1875 C3.4425 10.2075 3.4425 10.2075 2.9375 8.1875 C2.16664063 8.15011719 1.39578125 8.11273438 0.6015625 8.07421875 C-0.40132812 8.00847656 -1.40421875 7.94273438 -2.4375 7.875 C-3.43523438 7.81699219 -4.43296875 7.75898437 -5.4609375 7.69921875 C-6.31945312 7.53035156 -7.17796875 7.36148438 -8.0625 7.1875 C-8.7225 6.1975 -9.3825 5.2075 -10.0625 4.1875 C-19.28562858 5.3638232 -19.28562858 5.3638232 -28.0625 8.1875 C-28.3925 9.1775 -28.7225 10.1675 -29.0625 11.1875 C-30.0525 10.8575 -31.0425 10.5275 -32.0625 10.1875 C-32.0625 10.8475 -32.0625 11.5075 -32.0625 12.1875 C-35.39583333 13.85416667 -38.72916667 15.52083333 -42.0625 17.1875 C-35.96377463 7.76219716 -22.7787332 2.89510347 -12.23828125 0.5625 C-8.14609067 0.0792893 -4.11721935 0.00337754 0 0 Z " fill="#04FA5A" transform="translate(563.0625,54.8125)"/>
<path d="M0 0 C2.35723489 2.53184488 3 3.47190093 3 7 C1.02 7.33 -0.96 7.66 -3 8 C-3 8.66 -3 9.32 -3 10 C-3.66 10 -4.32 10 -5 10 C-5 10.66 -5 11.32 -5 12 C-9.07723734 13.95031692 -12.31692422 14.21581971 -16.8125 14.125 C-17.97394531 14.10695312 -19.13539063 14.08890625 -20.33203125 14.0703125 C-21.21246094 14.04710937 -22.09289062 14.02390625 -23 14 C-23 13.34 -23 12.68 -23 12 C-24.32 11.67 -25.64 11.34 -27 11 C-25.44364566 8.13630801 -24.63720834 6.83522148 -22 5 C-18.12049522 4.18890885 -14.44951056 3.81339276 -10.49609375 3.51953125 C-6.15937879 2.87508087 -4.22751951 0 0 0 Z " fill="#02FC61" transform="translate(855,123)"/>
<path d="M0 0 C0.66 0.99 1.32 1.98 2 3 C4.59120557 3.50902409 4.59120557 3.50902409 7.5 3.5625 C12.79229711 3.79229711 12.79229711 3.79229711 15 6 C14.625 8.125 14.625 8.125 14 10 C11.69 10 9.38 10 7 10 C7 10.66 7 11.32 7 12 C0.56971459 13.32388229 -5.4294834 14.24794402 -12 14 C-11.690625 13.443125 -11.38125 12.88625 -11.0625 12.3125 C-9.92904426 9.84556692 -9.35371934 7.68826701 -9 5 C-9.33 4.34 -9.66 3.68 -10 3 C-9.67 2.34 -9.34 1.68 -9 1 C-6.93359375 0.5859375 -6.93359375 0.5859375 -4.4375 0.375 C-3.61121094 0.30023438 -2.78492188 0.22546875 -1.93359375 0.1484375 C-0.97646484 0.07496094 -0.97646484 0.07496094 0 0 Z " fill="#06F83F" transform="translate(553,58)"/>
<path d="M0 0 C2.55272359 3.82908539 3.12435522 6.66381567 3.12939453 11.2019043 C3.13254669 12.01922531 3.13569885 12.83654633 3.13894653 13.67863464 C3.1369223 14.5516774 3.13489807 15.42472015 3.1328125 16.32421875 C3.13424759 17.67722832 3.13424759 17.67722832 3.13571167 19.05757141 C3.1363911 20.95968699 3.13455333 22.86180491 3.13037109 24.76391602 C3.1250008 27.68706406 3.13033366 30.61005974 3.13671875 33.53320312 C3.13605829 35.38020867 3.13477781 37.22721413 3.1328125 39.07421875 C3.13483673 39.9533342 3.13686096 40.83244965 3.13894653 41.73820496 C3.11496256 47.88503744 3.11496256 47.88503744 2 49 C-0.69654854 49.07319621 -3.36691458 49.09242537 -6.0625 49.0625 C-7.20041992 49.05573242 -7.20041992 49.05573242 -8.36132812 49.04882812 C-10.24091871 49.0370068 -12.12046899 49.01907078 -14 49 C-14.01981934 47.91058105 -14.03963867 46.82116211 -14.06005859 45.69873047 C-14.13639058 41.63942167 -14.22506461 37.58045847 -14.31738281 33.52148438 C-14.35555888 31.76797329 -14.39043124 30.01438692 -14.421875 28.26074219 C-14.46777359 25.73345114 -14.5257257 23.20667322 -14.5859375 20.6796875 C-14.60326431 19.51214432 -14.60326431 19.51214432 -14.62094116 18.3210144 C-14.74082021 13.85450206 -15.33106444 10.21040235 -17 6 C-16.34 6 -15.68 6 -15 6 C-11.60149978 10.18241199 -11.60217328 14.20532642 -11.70703125 19.36328125 C-11.71127609 20.15526413 -11.71552094 20.94724701 -11.71989441 21.76322937 C-11.73661837 24.28000627 -11.77425775 26.79596724 -11.8125 29.3125 C-11.82755501 31.02407693 -11.84124199 32.73566649 -11.85351562 34.44726562 C-11.88650115 38.63182233 -11.93823902 42.81577307 -12 47 C-7.71 47 -3.42 47 1 47 C0.67 46.01 0.34 45.02 0 44 C-0.08630926 42.54218278 -0.11770981 41.08072526 -0.11352539 39.62036133 C-0.11344986 38.73967484 -0.11337433 37.85898834 -0.11329651 36.95161438 C-0.10813522 36.00465195 -0.10297394 35.05768951 -0.09765625 34.08203125 C-0.0962413 33.10965012 -0.09482635 32.13726898 -0.09336853 31.13542175 C-0.08776817 28.02774996 -0.07521562 24.92015004 -0.0625 21.8125 C-0.05748505 19.70638125 -0.05292213 17.60026137 -0.04882812 15.49414062 C-0.03779862 10.32939936 -0.02053375 5.16471187 0 0 Z " fill="#20E3A4" transform="translate(795,89)"/>
<path d="M0 0 C2.92933308 12.03205406 1.94975099 24.09888617 -3.296875 35.21484375 C-4.94962163 37.91761518 -6.65598338 39.88528935 -9 42 C-8.67 40.35 -8.34 38.7 -8 37 C-7.34 37 -6.68 37 -6 37 C-5.96261719 35.77023438 -5.92523437 34.54046875 -5.88671875 33.2734375 C-5.82102972 31.64059599 -5.75458341 30.00778482 -5.6875 28.375 C-5.65366211 27.16263672 -5.65366211 27.16263672 -5.61914062 25.92578125 C-5.39200235 20.84614357 -4.48618669 17.53038463 -2 13 C-2.67424167 10.64539322 -2.67424167 10.64539322 -4 9 C-4.99 10.485 -4.99 10.485 -6 12 C-6.66 12 -7.32 12 -8 12 C-8.33 12.66 -8.66 13.32 -9 14 C-10.2065625 14.3403125 -10.2065625 14.3403125 -11.4375 14.6875 C-14.40853714 15.84174011 -14.40853714 15.84174011 -15.3125 19.625 C-15.6528125 21.295625 -15.6528125 21.295625 -16 23 C-16.99 21.68 -17.98 20.36 -19 19 C-15.13082319 14.27100612 -10.99697964 9.88730678 -6.6875 5.5625 C-6.14770508 5.01819336 -5.60791016 4.47388672 -5.05175781 3.91308594 C-1.12372693 0 -1.12372693 0 0 0 Z " fill="#03F871" transform="translate(597,79)"/>
<path d="M0 0 C4.2742558 1.5830577 6.26531794 4.50568404 9 8 C6.87372039 13.19757238 2.73926368 15.33220256 -2 18 C-8.62782008 20.65112803 -17.10450253 21.22435402 -24 19 C-24.33 18.34 -24.66 17.68 -25 17 C-25.99 16.34 -26.98 15.68 -28 15 C-23.42979943 7.90830946 -23.42979943 7.90830946 -21 6 C-18.80078125 5.8125 -18.80078125 5.8125 -16.3125 6 C-10.68838073 6.17267033 -5.56963688 5.39483165 -1.27734375 1.39453125 C-0.85582031 0.93433594 -0.43429687 0.47414063 0 0 Z M-1.25 5.44921875 C-4.59559036 7.33586558 -7.18827918 7.50444067 -11 7.8125 C-16.96377551 8.44057998 -16.96377551 8.44057998 -21.375 12.125 C-21.91125 13.07375 -22.4475 14.0225 -23 15 C-21.68 15.33 -20.36 15.66 -19 16 C-19 16.66 -19 17.32 -19 18 C-16.9377952 18.054348 -14.87517184 18.09294961 -12.8125 18.125 C-11.66394531 18.14820313 -10.51539063 18.17140625 -9.33203125 18.1953125 C-6.08259628 18.00484152 -3.91339479 17.39360127 -1 16 C-1 15.34 -1 14.68 -1 14 C-0.34 14 0.32 14 1 14 C1 13.34 1 12.68 1 12 C2.98 11.67 4.96 11.34 7 11 C6.38722388 8.03824877 5.74627478 6.61941217 4 4 C0.97429719 3.72925247 0.97429719 3.72925247 -1.25 5.44921875 Z " fill="#01FD6F" transform="translate(851,119)"/>
<path d="M0 0 C0.51171875 2.3828125 0.51171875 2.3828125 0.6875 5.125 C0.78611328 6.49011719 0.78611328 6.49011719 0.88671875 7.8828125 C0.94279297 8.93082031 0.94279297 8.93082031 1 10 C1.66 10 2.32 10 3 10 C2.34 11.98 1.68 13.96 1 16 C-0.65 16.33 -2.3 16.66 -4 17 C-4.2475 16.030625 -4.495 15.06125 -4.75 14.0625 C-5.1625 13.051875 -5.575 12.04125 -6 11 C-7.74671588 10.20643199 -7.74671588 10.20643199 -10 10 C-11.134375 9.505 -12.26875 9.01 -13.4375 8.5 C-16.38064616 7.26078056 -18.86753978 6.47461518 -22 6 C-22 5.67 -22 5.34 -22 5 C-20.22844346 5.11429397 -18.45773771 5.24183037 -16.6875 5.375 C-15.70136719 5.44460937 -14.71523438 5.51421875 -13.69921875 5.5859375 C-11 6 -11 6 -8 8 C-8 8.66 -8 9.32 -8 10 C-6.02 8.68 -4.04 7.36 -2 6 C-4.19222848 1.19353671 -4.19222848 1.19353671 -8.08984375 -2.171875 C-11.96647966 -3.27502509 -15.55292174 -3.29130038 -19.5625 -3.25 C-20.31724609 -3.25773437 -21.07199219 -3.26546875 -21.84960938 -3.2734375 C-27.22167163 -3.25450512 -30.21397351 -2.78602649 -34 1 C-36.125 0.625 -36.125 0.625 -38 0 C-36.75443908 -0.81928886 -35.50333365 -1.63015186 -34.25 -2.4375 C-33.20585938 -3.11619141 -33.20585938 -3.11619141 -32.140625 -3.80859375 C-21.79848906 -9.56470956 -9.20031286 -6.13354191 0 0 Z " fill="#03FC77" transform="translate(854,83)"/>
<path d="M0 0 C4 6.75 4 6.75 4 9 C1.66974815 9.67965679 -0.66250458 10.34603153 -3 11 C-3.67160156 11.19078125 -4.34320312 11.3815625 -5.03515625 11.578125 C-9.12707397 12.68191783 -12.7210833 13.21394583 -17 13 C-16.65066406 12.54109375 -16.30132813 12.0821875 -15.94140625 11.609375 C-15.48636719 10.99578125 -15.03132812 10.3821875 -14.5625 9.75 C-14.11003906 9.14671875 -13.65757812 8.5434375 -13.19140625 7.921875 C-11.95793286 5.93214088 -11.54007913 4.25590575 -11 2 C-7.62883396 -0.59320464 -4.09818116 -0.15762235 0 0 Z " fill="#03FB45" transform="translate(913,124)"/>
<path d="M0 0 C4.95 0 9.9 0 15 0 C14.67 0.66 14.34 1.32 14 2 C9.71 1.67 5.42 1.34 1 1 C1.15847412 2.08732422 1.31694824 3.17464844 1.48022461 4.29492188 C2.14256774 9.617012 2.22763602 14.92368978 2.31640625 20.28125 C2.33718735 21.33534058 2.35796844 22.38943115 2.37937927 23.47546387 C2.44435675 26.81691457 2.50351711 30.15843865 2.5625 33.5 C2.60573457 35.77604902 2.64935038 38.05209083 2.69335938 40.328125 C2.7999845 45.88534297 2.90139544 51.44263416 3 57 C7.29 57.33 11.58 57.66 16 58 C16 53.38 16 48.76 16 44 C16.33 44 16.66 44 17 44 C17.19517554 45.93674185 17.38087873 47.87444009 17.5625 49.8125 C17.66691406 50.89144531 17.77132812 51.97039062 17.87890625 53.08203125 C18 56 18 56 17 59 C14.35409986 59.02684679 11.70846904 59.04676357 9.0625 59.0625 C8.30775391 59.07087891 7.55300781 59.07925781 6.77539062 59.08789062 C4.85005687 59.09652441 2.92464419 59.05224333 1 59 C0 58 0 58 -0.12025452 55.67784119 C-0.11803391 54.64969803 -0.11581329 53.62155487 -0.11352539 52.56225586 C-0.11344986 51.40112778 -0.11337433 50.23999969 -0.11329651 49.04368591 C-0.10813522 47.780168 -0.10297394 46.51665009 -0.09765625 45.21484375 C-0.0962413 43.92888809 -0.09482635 42.64293243 -0.09336853 41.31800842 C-0.08954418 37.89356557 -0.07971462 34.46916491 -0.06866455 31.04473877 C-0.05844864 27.55261811 -0.05387053 24.06049066 -0.04882812 20.56835938 C-0.03809226 13.71222047 -0.02049614 6.8561166 0 0 Z " fill="#34E3A2" transform="translate(739,79)"/>
<path d="M0 0 C-0.66 0.33 -1.32 0.66 -2 1 C-2.67417969 0.70351562 -3.34835937 0.40703125 -4.04296875 0.1015625 C-8.11700534 -1.41611031 -11.99725251 -1.46151785 -16.3125 -1.625 C-17.14845703 -1.66367188 -17.98441406 -1.70234375 -18.84570312 -1.7421875 C-20.89679259 -1.83595159 -22.94836515 -1.91904245 -25 -2 C-25 -1.34 -25 -0.68 -25 0 C-26.3921875 0.4021875 -26.3921875 0.4021875 -27.8125 0.8125 C-30.91719763 1.96915206 -31.85325853 2.66658536 -34 5 C-34.825 5.474375 -35.65 5.94875 -36.5 6.4375 C-39.07248206 8.04530129 -40.24687951 9.57902409 -42 12 C-42.66 12 -43.32 12 -44 12 C-43.66132538 16.48684201 -43.66132538 16.48684201 -40.9375 19.875 C-40.298125 20.24625 -39.65875 20.6175 -39 21 C-41.31 20.67 -43.62 20.34 -46 20 C-46.86384126 17.29329738 -47.26948608 15.77621506 -47 13 C-42.88201959 5.09238314 -35.82956447 0.08334153 -27.8125 -3.375 C-17.79088031 -5.01788847 -9.1031566 -4.6984034 0 0 Z " fill="#11EF6A" transform="translate(650,81)"/>
<path d="M0 0 C3.63 0 7.26 0 11 0 C11 1.65 11 3.3 11 5 C9.06640625 6.83203125 9.06640625 6.83203125 6.5625 8.8125 C-0.26649833 15.78064719 0.89154277 24.87104635 0.90234375 34.1015625 C0.92902361 35.73448151 0.95925252 37.36737146 1 39 C0.67 39 0.34 39 0 39 C0 26.13 0 13.26 0 0 Z " fill="#0AF768" transform="translate(674,80)"/>
<path d="M0 0 C4.29 0 8.58 0 13 0 C14 3 14 3 13.1875 5.625 C12 8 12 8 10 9 C10 8.34 10 7.68 10 7 C7.525 8.485 7.525 8.485 5 10 C4.01 9.34 3.02 8.68 2 8 C1.67 9.32 1.34 10.64 1 12 C-0.3271261 8.0186217 -0.06915913 4.14954773 0 0 Z " fill="#05F96F" transform="translate(740,80)"/>
<path d="M0 0 C0.78955078 -0.01224609 1.57910156 -0.02449219 2.39257812 -0.03710938 C6.70045628 -0.04794226 10.01035658 0.18837065 13.9375 2.1875 C11.9575 5.1575 11.9575 5.1575 9.9375 8.1875 C9.9375 5.1875 9.9375 5.1875 10.9375 3.1875 C6.97942285 3.06988856 3.02180379 2.99978118 -0.9375 2.9375 C-2.04609375 2.90398438 -3.1546875 2.87046875 -4.296875 2.8359375 C-10.89244179 2.7583426 -15.94677326 3.41471514 -21.94580078 6.22363281 C-24.0625 7.1875 -24.0625 7.1875 -26.27685547 7.62792969 C-26.86611816 7.81258789 -27.45538086 7.99724609 -28.0625 8.1875 C-28.3925 9.1775 -28.7225 10.1675 -29.0625 11.1875 C-30.0525 10.8575 -31.0425 10.5275 -32.0625 10.1875 C-32.0625 10.8475 -32.0625 11.5075 -32.0625 12.1875 C-35.39583333 13.85416667 -38.72916667 15.52083333 -42.0625 17.1875 C-35.96377463 7.76219716 -22.7787332 2.89510347 -12.23828125 0.5625 C-8.14609067 0.0792893 -4.11721935 0.00337754 0 0 Z " fill="#29DC6C" transform="translate(563.0625,54.8125)"/>
<path d="M0 0 C8.128272 -0.39330348 15.31969415 0.4237859 22.125 5.1875 C22.74375 5.785625 23.3625 6.38375 24 7 C23.67 7.99 23.34 8.98 23 10 C22.34 10 21.68 10 21 10 C20.566875 11.3921875 20.566875 11.3921875 20.125 12.8125 C19 16 19 16 17 19 C16.35933594 18.7834375 15.71867188 18.566875 15.05859375 18.34375 C8.05571763 16.08947095 2.26422211 15.23897646 -5 17 C-5 16.34 -5 15.68 -5 15 C-1.94583187 13.98194396 0.17936961 13.86624485 3.375 13.875 C4.77878906 13.87113281 4.77878906 13.87113281 6.2109375 13.8671875 C8.90729747 13.99558559 11.37271509 14.39811291 14 15 C14 15.66 14 16.32 14 17 C14.99 17 15.98 17 17 17 C17 15.35 17 13.7 17 12 C17.66 12 18.32 12 19 12 C19.33 10.68 19.66 9.36 20 8 C19.0409375 7.8453125 19.0409375 7.8453125 18.0625 7.6875 C17.381875 7.460625 16.70125 7.23375 16 7 C15.67 6.01 15.34 5.02 15 4 C10.06836739 2.18837986 5.20955943 1.54837468 0 1 C0 0.67 0 0.34 0 0 Z " fill="#25E371" transform="translate(896,76)"/>
<path d="M0 0 C6.93 0.495 6.93 0.495 14 1 C14 1.33 14 1.66 14 2 C13.33613281 2.02578125 12.67226563 2.0515625 11.98828125 2.078125 C6.51393662 2.42976174 2.8830784 2.74113982 -1 7 C-1.33 7.99 -1.66 8.98 -2 10 C-2.66 10 -3.32 10 -4 10 C-4 21.88 -4 33.76 -4 46 C-8.62 46 -13.24 46 -18 46 C-18 40.06 -18 34.12 -18 28 C-17.67 28 -17.34 28 -17 28 C-17 33.61 -17 39.22 -17 45 C-13.04 45 -9.08 45 -5 45 C-5 33.12 -5 21.24 -5 9 C-4.34 9 -3.68 9 -3 9 C-3.33 7.35 -3.66 5.7 -4 4 C-2.68 4 -1.36 4 0 4 C0 2.68 0 1.36 0 0 Z " fill="#16F496" transform="translate(692,91)"/>
<path d="M0 0 C2.92933308 12.03205406 1.94975099 24.09888617 -3.296875 35.21484375 C-4.94962163 37.91761518 -6.65598338 39.88528935 -9 42 C-8.67 40.35 -8.34 38.7 -8 37 C-7.34 37 -6.68 37 -6 37 C-6 35.68 -6 34.36 -6 33 C-5.34 33 -4.68 33 -4 33 C-3.93941406 32.01257813 -3.87882813 31.02515625 -3.81640625 30.0078125 C-3.73261719 28.72648437 -3.64882813 27.44515625 -3.5625 26.125 C-3.48128906 24.84882812 -3.40007813 23.57265625 -3.31640625 22.2578125 C-3 19 -3 19 -2 17 C-1.34 17 -0.68 17 0 17 C-0.33 12.71 -0.66 8.42 -1 4 C-3.97 6.475 -3.97 6.475 -7 9 C-7.66 8.67 -8.32 8.34 -9 8 C-7.6905332 6.66368764 -6.37734515 5.33102075 -5.0625 4 C-3.96615234 2.88625 -3.96615234 2.88625 -2.84765625 1.75 C-1 0 -1 0 0 0 Z " fill="#20EB8E" transform="translate(597,79)"/>
<path d="M0 0 C3.63 0.33 7.26 0.66 11 1 C11 1.33 11 1.66 11 2 C9.741875 2.226875 8.48375 2.45375 7.1875 2.6875 C4.0905589 3.47271734 3.16691463 3.81791132 0.9375 6.25 C-0.19483169 9.5715063 0.13931295 11.63549608 1 15 C-0.32 15.33 -1.64 15.66 -3 16 C-3.66 14.02 -4.32 12.04 -5 10 C-5.99 10 -6.98 10 -8 10 C-7.38722388 7.03824877 -6.74627478 5.61941217 -5 3 C-2.375 2.8125 -2.375 2.8125 0 3 C0 2.01 0 1.02 0 0 Z " fill="#07FB74" transform="translate(893,76)"/>
<path d="M0 0 C2.0625 1.3125 2.0625 1.3125 3.875 3.375 C8.24851994 7.24868909 14.96342446 6.47107916 20.5625 6.5 C21.8103125 6.51417969 23.058125 6.52835938 24.34375 6.54296875 C28.10980821 6.44492856 28.10980821 6.44492856 31.78125 5.23828125 C34.8860449 4.36228555 36.13980646 4.14342258 39.0625 5.3125 C26.76208107 10.19025233 15.54572155 10.77653635 2.8671875 6.53515625 C-0.71929514 4.97168959 -2.60892075 3.41727234 -4.9375 0.3125 C-1.9375 -0.6875 -1.9375 -0.6875 0 0 Z " fill="#27E5A4" transform="translate(532.9375,130.6875)"/>
<path d="M0 0 C0 0.33 0 0.66 0 1 C-0.93851807 0.93099487 -0.93851807 0.93099487 -1.89599609 0.8605957 C-4.72146976 0.66185164 -7.54792368 0.48689757 -10.375 0.3125 C-11.35984375 0.23966797 -12.3446875 0.16683594 -13.359375 0.09179688 C-14.77089844 0.00961914 -14.77089844 0.00961914 -16.2109375 -0.07421875 C-17.51490479 -0.16062622 -17.51490479 -0.16062622 -18.84521484 -0.2487793 C-19.55629395 -0.16668213 -20.26737305 -0.08458496 -21 0 C-21.99 1.485 -21.99 1.485 -23 3 C-26.625 3.6875 -26.625 3.6875 -30 4 C-22.19699876 -5.31325955 -10.24946376 -6.2036228 0 0 Z " fill="#1DEFA5" transform="translate(720,80)"/>
<path d="M0 0 C0.33 0.66 0.66 1.32 1 2 C0.06421005 4.35981813 -0.93347808 6.69631264 -2 9 C-1.34 9 -0.68 9 0 9 C0 9.66 0 10.32 0 11 C1.32 10.67 2.64 10.34 4 10 C4 10.66 4 11.32 4 12 C8.07964281 10.69844994 8.07964281 10.69844994 12 9 C10.61725283 12.34163899 9.20955991 14.25766748 6 16 C3.3125 15.8125 3.3125 15.8125 1 15 C0.67 14.34 0.34 13.68 0 13 C-1.97888961 12.27306096 -3.97954558 11.60183749 -6 11 C-6.3125 8.8125 -6.3125 8.8125 -6 6 C-3.5625 3.25 -3.5625 3.25 -1 1 C-0.67 0.67 -0.34 0.34 0 0 Z " fill="#0BF674" transform="translate(576,112)"/>
<path d="M0 0 C0.33 0 0.66 0 1 0 C1 1.65 1 3.3 1 5 C0.34 5 -0.32 5 -1 5 C-1.29546532 18.93757097 -1.29546532 18.93757097 3 32 C3.66 32.33 4.32 32.66 5 33 C5 33.99 5 34.98 5 36 C6.485 35.505 6.485 35.505 8 35 C8 36.32 8 37.64 8 39 C2.49225977 36.78259809 0.38692289 32.1995835 -2 27 C-4.57653992 18.56463235 -4.70265074 9.79699 -0.921875 1.6875 C-0.61765625 1.130625 -0.3134375 0.57375 0 0 Z " fill="#29E6A6" transform="translate(808,92)"/>
<path d="M0 0 C0 0.66 0 1.32 0 2 C-2.69489709 0.96959817 -5.14858267 -0.08747914 -7.640625 -1.5546875 C-11.82095889 -3.35320324 -15.13641931 -3.40990844 -19.625 -3.3125 C-20.37523437 -3.31572266 -21.12546875 -3.31894531 -21.8984375 -3.32226562 C-27.23000887 -3.27027335 -30.2430893 -2.7569107 -34 1 C-36.125 0.625 -36.125 0.625 -38 0 C-36.75443908 -0.81928886 -35.50333365 -1.63015186 -34.25 -2.4375 C-33.20585938 -3.11619141 -33.20585938 -3.11619141 -32.140625 -3.80859375 C-21.79848906 -9.56470956 -9.20031286 -6.13354191 0 0 Z " fill="#32DC79" transform="translate(854,83)"/>
<path d="M0 0 C4.29951803 1.59241408 6.39671947 4.35540725 9 8 C8.67 8.99 8.34 9.98 8 11 C4 6.25 4 6.25 4 4 C3.030625 4.66 2.06125 5.32 1.0625 6 C-5.645901 9.45768763 -13.67589661 8.29962241 -21 8 C-21 7.34 -21 6.68 -21 6 C-20.05640625 6.05220703 -20.05640625 6.05220703 -19.09375 6.10546875 C-12.59782773 6.31091207 -6.30617207 6.08126241 -1.27734375 1.39453125 C-0.85582031 0.93433594 -0.43429687 0.47414063 0 0 Z " fill="#22E47A" transform="translate(851,119)"/>
<path d="M0 0 C2.15305957 3.85756507 3.39253254 6.55129785 3 11 C1.62437146 9.71034824 0.29233607 8.37310707 -1 7 C-1 6.34 -1 5.68 -1 5 C-2.299375 4.7834375 -2.299375 4.7834375 -3.625 4.5625 C-5.79396102 4.2010065 -7.96089983 3.82703803 -10.125 3.4375 C-13.1743963 2.89970534 -13.1743963 2.89970534 -17 3 C-17 2.34 -17 1.68 -17 1 C-11.30494264 0.3583034 -5.73266804 -0.12462322 0 0 Z " fill="#11F5A0" transform="translate(781,90)"/>
<path d="M0 0 C0.66 0.99 1.32 1.98 2 3 C1.51015625 3.63808594 1.0203125 4.27617188 0.515625 4.93359375 C-1.53277176 9.07790163 -1.36756078 12.51069364 -1.25 17.0625 C-1.24484375 17.86494141 -1.2396875 18.66738281 -1.234375 19.49414062 C-1.18298363 24.82686017 -1.18298363 24.82686017 0 30 C0.66 30.33 1.32 30.66 2 31 C2.625 33.5625 2.625 33.5625 3 36 C-1.60372294 31.73924782 -3.66345394 26.85897544 -4.39453125 20.6484375 C-4.62148705 12.93194022 -3.54435322 6.86718436 0 0 Z " fill="#2EE4A6" transform="translate(871,91)"/>
<path d="M0 0 C-0.66 0.33 -1.32 0.66 -2 1 C-2.67417969 0.70351562 -3.34835937 0.40703125 -4.04296875 0.1015625 C-8.11700534 -1.41611031 -11.99725251 -1.46151785 -16.3125 -1.625 C-17.14845703 -1.66367188 -17.98441406 -1.70234375 -18.84570312 -1.7421875 C-20.89679259 -1.83595159 -22.94836515 -1.91904245 -25 -2 C-25 -1.34 -25 -0.68 -25 0 C-26.0725 0.144375 -27.145 0.28875 -28.25 0.4375 C-30.91662949 0.83749442 -33.41399729 1.27591924 -36 2 C-27.17877828 -7.74977137 -10.5158983 -5.42756041 0 0 Z " fill="#29DE71" transform="translate(650,81)"/>
<path d="M0 0 C0.86627399 1.59766103 1.71766465 3.20339944 2.5625 4.8125 C3.03816406 5.70582031 3.51382813 6.59914063 4.00390625 7.51953125 C5 10 5 10 4 13 C2 11 2 11 -1 5 C-8.26 5 -15.52 5 -23 5 C-23.33 3.68 -23.66 2.36 -24 1 C-23.38125 1.33 -22.7625 1.66 -22.125 2 C-13.12460587 4.88012612 -8.09821187 0 0 0 Z " fill="#2AE077" transform="translate(914,120)"/>
<path d="M0 0 C1.65 0 3.3 0 5 0 C4.030625 0.825 3.06125 1.65 2.0625 2.5 C-1.92608463 7.00233674 -1.71276907 11.84158858 -1.77319336 17.57617188 C-1.79387105 19.38557646 -1.89053281 21.19379141 -2 23 C-2.66 23.33 -3.32 23.66 -4 24 C-4.33 17.4 -4.66 10.8 -5 4 C-4.01 4 -3.02 4 -2 4 C-2 3.34 -2 2.68 -2 2 C-1.34 2 -0.68 2 0 2 C0 1.34 0 0.68 0 0 Z " fill="#27E9A1" transform="translate(759,93)"/>
<path d="M0 0 C-4.22811313 4.34238645 -7.16797369 7.03054067 -13.1875 8.125 C-14.08855469 8.29257813 -14.98960937 8.46015625 -15.91796875 8.6328125 C-16.60503906 8.75398437 -17.29210937 8.87515625 -18 9 C-18 8.34 -18 7.68 -18 7 C-17.401875 6.731875 -16.80375 6.46375 -16.1875 6.1875 C-13.98271274 5.13430869 -13.98271274 5.13430869 -12.5625 3.5 C-8.88786711 -0.02764757 -4.89637002 -0.22773814 0 0 Z " fill="#11F4A0" transform="translate(582,128)"/>
<path d="M0 0 C1.59375 1.1328125 1.59375 1.1328125 3.59375 4.1328125 C2.27375 3.8028125 0.95375 3.4728125 -0.40625 3.1328125 C-0.40625 2.4728125 -0.40625 1.8128125 -0.40625 1.1328125 C-8.3508547 -0.75950476 -15.31652535 -0.91193379 -23.40625 0.1328125 C-23.73625 1.1228125 -24.06625 2.1128125 -24.40625 3.1328125 C-25.06625 2.1428125 -25.72625 1.1528125 -26.40625 0.1328125 C-17.14786538 -4.70679764 -9.40173025 -4.89352353 0 0 Z " fill="#2EE9A5" transform="translate(788.40625,79.8671875)"/>
<path d="M0 0 C-1.45668783 2.96783129 -3.01232086 5.86415313 -4.625 8.75 C-5.29402344 9.94882813 -5.29402344 9.94882813 -5.9765625 11.171875 C-6.31429687 11.77515625 -6.65203125 12.3784375 -7 13 C-8.98 13 -10.96 13 -13 13 C-12.65066406 12.54109375 -12.30132813 12.0821875 -11.94140625 11.609375 C-11.48636719 10.99578125 -11.03132812 10.3821875 -10.5625 9.75 C-10.11003906 9.14671875 -9.65757812 8.5434375 -9.19140625 7.921875 C-7.95817433 5.93253039 -7.55768382 4.24980138 -7 2 C-4.41847698 0.27898465 -3.15081975 0 0 0 Z " fill="#03FC5C" transform="translate(909,124)"/>
<path d="M0 0 C-9.4256703 6.79674185 -17.52115774 9.35661476 -29.125 7.5 C-29.74375 7.335 -30.3625 7.17 -31 7 C-31 6.67 -31 6.34 -31 6 C-29.75863281 5.93941406 -28.51726563 5.87882813 -27.23828125 5.81640625 C-25.59634423 5.73196377 -23.95441768 5.64731764 -22.3125 5.5625 C-21.08756836 5.50352539 -21.08756836 5.50352539 -19.83789062 5.44335938 C-15.80344189 5.23101997 -11.94252691 4.95552078 -8 4 C-8 3.34 -8 2.68 -8 2 C-7.34 2 -6.68 2 -6 2 C-6 1.34 -6 0.68 -6 0 C-2.25 -1.125 -2.25 -1.125 0 0 Z " fill="#2BDA76" transform="translate(858,131)"/>
<path d="M0 0 C2.56224053 2.95331934 3.38076344 4.71517308 3.25 8.625 C3.23453125 9.40101562 3.2190625 10.17703125 3.203125 10.9765625 C3 13 3 13 2 15 C2.66 15.33 3.32 15.66 4 16 C4 16.66 4 17.32 4 18 C3.030625 18.268125 2.06125 18.53625 1.0625 18.8125 C0.051875 19.204375 -0.95875 19.59625 -2 20 C-2.33 20.99 -2.66 21.98 -3 23 C-3.99 22.67 -4.98 22.34 -6 22 C-5.38125 21.46375 -4.7625 20.9275 -4.125 20.375 C1.12976248 14.50203017 0.21647528 7.43231793 0 0 Z " fill="#22EBA0" transform="translate(648,100)"/>
<path d="M0 0 C6.93 0.495 6.93 0.495 14 1 C14 1.33 14 1.66 14 2 C13.33613281 2.02578125 12.67226563 2.0515625 11.98828125 2.078125 C6.51393662 2.42976174 2.8830784 2.74113982 -1 7 C-1.33 7.99 -1.66 8.98 -2 10 C-2.66 10 -3.32 10 -4 10 C-4 14.29 -4 18.58 -4 23 C-4.33 23 -4.66 23 -5 23 C-5 18.38 -5 13.76 -5 9 C-4.34 9 -3.68 9 -3 9 C-3.33 7.35 -3.66 5.7 -4 4 C-2.68 4 -1.36 4 0 4 C0 2.68 0 1.36 0 0 Z " fill="#20F09E" transform="translate(692,91)"/>
<path d="M0 0 C5.69505103 3.63850483 7.9541433 8.67874711 9.50390625 15.08203125 C10.25466462 19.90018941 9.76511301 24.23929683 9 29 C8.67 29 8.34 29 8 29 C7.89042969 28.02160156 7.78085937 27.04320313 7.66796875 26.03515625 C6.5182908 12.89584637 6.5182908 12.89584637 0 2 C0 1.34 0 0.68 0 0 Z " fill="#30E4A6" transform="translate(656,87)"/>
<path d="M0 0 C4.11943199 2.89473599 6.37127955 5.19956079 8 10 C8.23610158 14.0137268 8.17542254 17.98477289 8 22 C7.67 22 7.34 22 7 22 C6.96261719 21.31292969 6.92523437 20.62585938 6.88671875 19.91796875 C6.78810547 18.56638672 6.78810547 18.56638672 6.6875 17.1875 C6.62949219 16.29417969 6.57148437 15.40085937 6.51171875 14.48046875 C5.9290429 11.65604766 5.23914391 10.75261387 3 9 C2.34 8.67 1.68 8.34 1 8 C0.40644386 5.35139573 0.25790731 2.70802678 0 0 Z " fill="#1DED99" transform="translate(854,85)"/>
<path d="M0 0 C0.66 0 1.32 0 2 0 C2 2.97 2 5.94 2 9 C0.39592672 9.02708567 -1.2082785 9.04643483 -2.8125 9.0625 C-4.15248047 9.07990234 -4.15248047 9.07990234 -5.51953125 9.09765625 C-8 9 -8 9 -11 8 C-11 7.34 -11 6.68 -11 6 C-3.57142857 5.85714286 -3.57142857 5.85714286 0 7 C0 4.69 0 2.38 0 0 Z " fill="#07F679" transform="translate(726,128)"/>
<path d="M0 0 C0.66 0.33 1.32 0.66 2 1 C1.77183594 1.54527344 1.54367187 2.09054688 1.30859375 2.65234375 C-0.69086327 7.89755612 -1.2104049 11.62793175 -0.12890625 17.15234375 C-0.08636719 17.76207031 -0.04382813 18.37179688 0 19 C-0.66 19.66 -1.32 20.32 -2 21 C-4.18019305 14.32315878 -5.19585333 8.5914475 -2 2 C-1.34 2 -0.68 2 0 2 C0 1.34 0 0.68 0 0 Z " fill="#1FEDA6" transform="translate(885,96)"/>
<path d="M0 0 C0.66 0 1.32 0 2 0 C2 1.65 2 3.3 2 5 C5.96 5.33 9.92 5.66 14 6 C13.67 7.32 13.34 8.64 13 10 C8.545 9.01 8.545 9.01 4 8 C4 8.66 4 9.32 4 10 C3.01 9.67 2.02 9.34 1 9 C0.67 6.03 0.34 3.06 0 0 Z " fill="#04FC83" transform="translate(602,96)"/>
<path d="M0 0 C1.134375 0.515625 2.26875 1.03125 3.4375 1.5625 C9.15729317 3.73032197 14.30445112 2.89851629 20 1 C20 1.66 20 2.32 20 3 C19.34 3 18.68 3 18 3 C18 3.66 18 4.32 18 5 C15.56292912 5.2757817 13.12904951 5.52131492 10.6875 5.75 C9.99720703 5.83121094 9.30691406 5.91242188 8.59570312 5.99609375 C6.57421875 6.171875 6.57421875 6.171875 3 6 C1.01953125 4.140625 1.01953125 4.140625 0 2 C0 1.34 0 0.68 0 0 Z " fill="#2DE3A6" transform="translate(622,122)"/>
<path d="M0 0 C0.33 0 0.66 0 1 0 C1 2.97 1 5.94 1 9 C0.34 9 -0.32 9 -1 9 C-1.04898438 9.90363281 -1.09796875 10.80726562 -1.1484375 11.73828125 C-1.22320313 12.91777344 -1.29796875 14.09726563 -1.375 15.3125 C-1.47941406 17.07013672 -1.47941406 17.07013672 -1.5859375 18.86328125 C-2 22 -2 22 -4 25 C-4.54232626 10.51788031 -4.54232626 10.51788031 -1 4 C-0.62691369 2.67723944 -0.26953585 1.34767923 0 0 Z " fill="#06FA80" transform="translate(596,87)"/>
<path d="M0 0 C0 1.65 0 3.3 0 5 C-3.3 5 -6.6 5 -10 5 C-8 1 -8 1 -6.125 0.25 C-4 0 -4 0 0 0 Z " fill="#03FA76" transform="translate(755,131)"/>
<path d="M0 0 C0.99 0.33 1.98 0.66 3 1 C0.89983377 2.17441535 -1.20458755 3.33964012 -3.3125 4.5 C-3.90740234 4.83386719 -4.50230469 5.16773437 -5.11523438 5.51171875 C-7.95828844 7.06825114 -9.70660988 8 -13 8 C-12.67 7.34 -12.34 6.68 -12 6 C-12.66 6 -13.32 6 -14 6 C-14 5.34 -14 4.68 -14 4 C-12.80375 3.896875 -11.6075 3.79375 -10.375 3.6875 C-6.41622297 3.2180521 -3.54907119 1.81580386 0 0 Z " fill="#07F94D" transform="translate(543,72)"/>
<path d="M0 0 C1.0625 1.875 1.0625 1.875 2 4 C1.67 4.66 1.34 5.32 1 6 C1.66 6.33 2.32 6.66 3 7 C2.67 8.32 2.34 9.64 2 11 C1.01 11 0.02 11 -1 11 C-2.60725635 7.78548731 -2.05748185 4.56387464 -2 1 C-1.34 0.67 -0.68 0.34 0 0 Z " fill="#03FD74" transform="translate(818,83)"/>
<path d="M0 0 C1.32 0.33 2.64 0.66 4 1 C3.67 1.33 3.34 1.66 3 2 C2.92773498 3.85287502 2.9161878 5.70833878 2.9375 7.5625 C2.94652344 8.57441406 2.95554687 9.58632812 2.96484375 10.62890625 C2.97644531 11.41136719 2.98804688 12.19382812 3 13 C2.34 12.67 1.68 12.34 1 12 C0.375 9.4375 0.375 9.4375 0 7 C-0.99 7 -1.98 7 -3 7 C-2.38722388 4.03824877 -1.74627478 2.61941217 0 0 Z " fill="#01FC86" transform="translate(888,79)"/>
<path d="M0 0 C3.87967644 1.14626804 7.00412353 2.22604031 10 5 C10.33 5.99 10.66 6.98 11 8 C8.8125 8.3125 8.8125 8.3125 6 8 C2.95424358 5.43879574 1.26493447 3.79480342 0 0 Z " fill="#02FD72" transform="translate(519,76)"/>
<path d="M0 0 C2.64 0 5.28 0 8 0 C5.74716687 3.31996462 3.19199167 5.58443874 0 8 C0 5.36 0 2.72 0 0 Z " fill="#01FD55" transform="translate(675,81)"/>
<path d="M0 0 C3.125 -0.1875 3.125 -0.1875 6 0 C5.67 0.99 5.34 1.98 5 3 C4.34 3 3.68 3 3 3 C3 3.99 3 4.98 3 6 C0.69 6.33 -1.62 6.66 -4 7 C-2.79618552 4.50638429 -1.54571278 2.31856917 0 0 Z " fill="#03FB35" transform="translate(545,65)"/>
<path d="M0 0 C3 1.8125 3 1.8125 6 4 C6 4.99 6 5.98 6 7 C6.99 7.33 7.98 7.66 9 8 C3.37082652 7.59791618 0.99613521 5.71069698 -3 2 C-2.01 1.34 -1.02 0.68 0 0 Z " fill="#19EFA6" transform="translate(879,128)"/>
<path d="M0 0 C0.95619733 3.99795892 1.1039592 7.70803922 1.0625 11.8125 C1.05347656 12.97394531 1.04445313 14.13539062 1.03515625 15.33203125 C1.02355469 16.21246094 1.01195312 17.09289062 1 18 C0.67 18 0.34 18 0 18 C-0.33 13.38 -0.66 8.76 -1 4 C-3.97 6.475 -3.97 6.475 -7 9 C-7.66 8.67 -8.32 8.34 -9 8 C-7.6905332 6.66368764 -6.37734515 5.33102075 -5.0625 4 C-3.96615234 2.88625 -3.96615234 2.88625 -2.84765625 1.75 C-1 0 -1 0 0 0 Z " fill="#27D37F" transform="translate(597,79)"/>
<path d="M0 0 C0 0.33 0 0.66 0 1 C-0.96421875 1.04898438 -1.9284375 1.09796875 -2.921875 1.1484375 C-4.18515625 1.22320312 -5.4484375 1.29796875 -6.75 1.375 C-8.62945313 1.47941406 -8.62945313 1.47941406 -10.546875 1.5859375 C-14.85761516 2.10283621 -16.96047235 2.96047235 -20 6 C-22.125 5.625 -22.125 5.625 -24 5 C-16.45895578 -1.28420352 -9.32585021 -0.50930007 0 0 Z " fill="#1EEA73" transform="translate(840,78)"/>
<path d="M0 0 C-1.1446875 0.556875 -1.1446875 0.556875 -2.3125 1.125 C-5.52043115 3.3630915 -6.4977816 5.44211433 -8 9 C-8.66 9 -9.32 9 -10 9 C-9.835 8.401875 -9.67 7.80375 -9.5 7.1875 C-8.8885876 4.88655664 -8.8885876 4.88655664 -9 2 C-9 1.34 -9 0.68 -9 0 C-5.62182575 -0.84454356 -3.32534757 -1.10844919 0 0 Z " fill="#1CED8A" transform="translate(829,91)"/>
<path d="M0 0 C0.99 0 1.98 0 3 0 C3.36637589 6.35051546 3.36637589 6.35051546 1.625 9.4375 C0 11 0 11 -2 11 C-2 10.34 -2 9.68 -2 9 C-3.65 9 -5.3 9 -7 9 C-7 8.67 -7 8.34 -7 8 C-3.535 7.505 -3.535 7.505 0 7 C-0.185625 6.030625 -0.37125 5.06125 -0.5625 4.0625 C-0.706875 3.051875 -0.85125 2.04125 -1 1 C-0.67 0.67 -0.34 0.34 0 0 Z " fill="#1EE853" transform="translate(567,60)"/>
<path d="M0 0 C0 2.31 0 4.62 0 7 C-1.32 7 -2.64 7 -4 7 C-4.33 7.99 -4.66 8.98 -5 10 C-5.66 10 -6.32 10 -7 10 C-6.55090939 8.51800098 -6.09043436 7.03944764 -5.625 5.5625 C-5.36976563 4.73878906 -5.11453125 3.91507812 -4.8515625 3.06640625 C-3.73877887 0.36611937 -2.88484143 0 0 0 Z " fill="#12F05E" transform="translate(584,102)"/>
<path d="M0 0 C0.99 0.66 1.98 1.32 3 2 C1.68 2.33 0.36 2.66 -1 3 C-1.20970559 7.14093698 -1.20970559 7.14093698 0 11 C-1.98 10.34 -3.96 9.68 -6 9 C-4.3619751 5.48994665 -2.96865509 2.54456151 0 0 Z " fill="#03FB7C" transform="translate(829,126)"/>
<path d="M0 0 C0.33 0.66 0.66 1.32 1 2 C-0.21484375 4.3828125 -0.21484375 4.3828125 -1.9375 7.125 C-2.50339844 8.03507812 -3.06929687 8.94515625 -3.65234375 9.8828125 C-4.09707031 10.58148438 -4.54179688 11.28015625 -5 12 C-5.66 11.01 -6.32 10.02 -7 9 C-6.67 8.34 -6.34 7.68 -6 7 C-5.34 7.33 -4.68 7.66 -4 8 C-4.33 7.01 -4.66 6.02 -5 5 C-4 2 -4 2 -1.9375 0.8125 C-1.298125 0.544375 -0.65875 0.27625 0 0 Z " fill="#20ECA3" transform="translate(663,117)"/>
<path d="M0 0 C0.99 0.33 1.98 0.66 3 1 C2.401875 1.721875 1.80375 2.44375 1.1875 3.1875 C-2.79349509 8.07036153 -2.79349509 8.07036153 -4 14 C-4.66 13.67 -5.32 13.34 -6 13 C-5.44271087 9.65626525 -4.64826111 6.96687001 -3 4 C-2.34 4 -1.68 4 -1 4 C-0.67 2.68 -0.34 1.36 0 0 Z " fill="#04FB51" transform="translate(580,108)"/>
<path d="M0 0 C5.78461538 4.43076923 5.78461538 4.43076923 6.875 7.3125 C6.936875 8.1478125 6.936875 8.1478125 7 9 C6.01 9.33 5.02 9.66 4 10 C3.34 9.67 2.68 9.34 2 9 C2.33 7.35 2.66 5.7 3 4 C2.34 4 1.68 4 1 4 C0.67 2.68 0.34 1.36 0 0 Z M3 10 C3.66 10.66 4.32 11.32 5 12 C4.01 11.67 3.02 11.34 2 11 C2.33 10.67 2.66 10.34 3 10 Z " fill="#1AEE9F" transform="translate(720,81)"/>
<path d="M0 0 C1.32 0.66 2.64 1.32 4 2 C2.57277341 3.1998278 1.13284224 4.3845576 -0.3125 5.5625 C-1.51326172 6.55443359 -1.51326172 6.55443359 -2.73828125 7.56640625 C-3.48464844 8.03949219 -4.23101563 8.51257813 -5 9 C-5.99 8.67 -6.98 8.34 -8 8 C-7.67 7.34 -7.34 6.68 -7 6 C-6.01 6 -5.02 6 -4 6 C-3.67 5.01 -3.34 4.02 -3 3 C-2.01 3.33 -1.02 3.66 0 4 C0 2.68 0 1.36 0 0 Z " fill="#20EEA8" transform="translate(653,128)"/>
<path d="M0 0 C-0.804375 0.45375 -1.60875 0.9075 -2.4375 1.375 C-5.08856572 2.74725665 -5.08856572 2.74725665 -6 5 C-8.32156597 5.40729228 -10.6568787 5.74438677 -13 6 C-5.46629213 -1.95224719 -5.46629213 -1.95224719 0 0 Z " fill="#21E69F" transform="translate(703,78)"/>
<path d="M0 0 C1.485 0.99 1.485 0.99 3 2 C3.66 1.34 4.32 0.68 5 0 C7.125 0.375 7.125 0.375 9 1 C8.01 2.485 8.01 2.485 7 4 C3.375 4.6875 3.375 4.6875 0 5 C0 3.35 0 1.7 0 0 Z " fill="#13F0A1" transform="translate(753,83)"/>
<path d="M0 0 C0.66 0.33 1.32 0.66 2 1 C1.01 1.33 0.02 1.66 -1 2 C-2.5838192 4.55170871 -3.37344168 7.07606119 -4 10 C-5.32 9.67 -6.64 9.34 -8 9 C-7.61479436 6.46089803 -7.29902057 5.27248877 -5.37109375 3.515625 C-4.73300781 3.09796875 -4.09492187 2.6803125 -3.4375 2.25 C-2.79683594 1.82203125 -2.15617188 1.3940625 -1.49609375 0.953125 C-1.00238281 0.63859375 -0.50867188 0.3240625 0 0 Z " fill="#05F95B" transform="translate(528,67)"/>
<path d="M0 0 C0.66 0.33 1.32 0.66 2 1 C1.2884375 2.0828125 1.2884375 2.0828125 0.5625 3.1875 C-0.94152903 5.89475226 -1.56599182 7.96194275 -2 11 C-3.32 10.67 -4.64 10.34 -6 10 C-5.42680175 6.67545017 -4.45672125 5.26018355 -2 3 C-1.34 2.01 -0.68 1.02 0 0 Z " fill="#01FD82" transform="translate(898,126)"/>
<path d="M0 0 C0.33 0 0.66 0 1 0 C1.06058594 0.75925781 1.12117187 1.51851563 1.18359375 2.30078125 C1.26738281 3.29464844 1.35117187 4.28851563 1.4375 5.3125 C1.55931641 6.79169922 1.55931641 6.79169922 1.68359375 8.30078125 C1.91812559 11.09375599 1.91812559 11.09375599 3 14 C2.01 14.495 2.01 14.495 1 15 C-1.18085057 11.72872414 -1.24887859 10.72623277 -1.1875 6.9375 C-1.18105469 6.05964844 -1.17460938 5.18179688 -1.16796875 4.27734375 C-1 2 -1 2 0 0 Z " fill="#2BE195" transform="translate(616,102)"/>
<path d="M0 0 C0.33 0 0.66 0 1 0 C1.0825 1.11375 1.165 2.2275 1.25 3.375 C1.57873787 7.05753944 1.57873787 7.05753944 4.0625 8.4375 C4.701875 8.623125 5.34125 8.80875 6 9 C5.01 10.485 5.01 10.485 4 12 C3.01 11.67 2.02 11.34 1 11 C0.234375 9.2578125 0.234375 9.2578125 -0.25 7.125 C-0.42015625 6.42632812 -0.5903125 5.72765625 -0.765625 5.0078125 C-1 3 -1 3 0 0 Z " fill="#01FC8A" transform="translate(815,87)"/>
<path d="M0 0 C1 2 1 2 0.22265625 4.3828125 C-0.16019531 5.28773437 -0.54304687 6.19265625 -0.9375 7.125 C-1.31777344 8.03507812 -1.69804688 8.94515625 -2.08984375 9.8828125 C-2.39019531 10.58148438 -2.69054687 11.28015625 -3 12 C-3.99 12 -4.98 12 -6 12 C-5.54300722 6.97307937 -3.00758252 3.85103739 0 0 Z " fill="#24E892" transform="translate(520,72)"/>
<path d="M0 0 C0.33 0.66 0.66 1.32 1 2 C0.06421005 4.35981813 -0.93347808 6.69631264 -2 9 C-1.34 9.33 -0.68 9.66 0 10 C-2.97 9.505 -2.97 9.505 -6 9 C-5.52797514 4.75177626 -3.03344482 2.80010291 0 0 Z " fill="#1AEC6B" transform="translate(576,112)"/>
<path d="M0 0 C0 0.99 0 1.98 0 3 C-0.804375 3.763125 -1.60875 4.52625 -2.4375 5.3125 C-5.31405517 8.32937493 -5.71555086 9.92289563 -6 14 C-6.99 12.68 -7.98 11.36 -9 10 C-8.06409496 8.8944811 -7.12620142 7.79064547 -6.1875 6.6875 C-5.66542969 6.07261719 -5.14335938 5.45773438 -4.60546875 4.82421875 C-3.12827531 3.14575321 -1.59960869 1.56117966 0 0 Z " fill="#26DA76" transform="translate(587,88)"/>
<path d="M0 0 C0.33 0 0.66 0 1 0 C1 2.64 1 5.28 1 8 C-0.98 8.99 -0.98 8.99 -3 10 C-3 8.35 -3 6.7 -3 5 C-2.34 5 -1.68 5 -1 5 C-0.67 3.35 -0.34 1.7 0 0 Z " fill="#09F9A6" transform="translate(663,109)"/>
<path d="M0 0 C0 0.66 0 1.32 0 2 C3.63 2 7.26 2 11 2 C11 2.33 11 2.66 11 3 C10.09636719 2.98839844 9.19273437 2.97679688 8.26171875 2.96484375 C6.49248047 2.95130859 6.49248047 2.95130859 4.6875 2.9375 C3.51574219 2.92589844 2.34398437 2.91429688 1.13671875 2.90234375 C-2.03059195 2.85100102 -2.03059195 2.85100102 -5 4 C-4.67 3.01 -4.34 2.02 -4 1 C-2 0 -2 0 0 0 Z " fill="#0DFA9D" transform="translate(695,89)"/>
<path d="M0 0 C1.77155654 0.11429397 3.54226229 0.24183037 5.3125 0.375 C6.79169922 0.47941406 6.79169922 0.47941406 8.30078125 0.5859375 C11 1 11 1 14 3 C13.67 3.99 13.34 4.98 13 6 C12.48050781 5.72285156 11.96101562 5.44570312 11.42578125 5.16015625 C7.63783995 3.19266733 4.29300887 1.53662611 0 1 C0 0.67 0 0.34 0 0 Z " fill="#28E16F" transform="translate(832,88)"/>
<path d="M0 0 C0.66 0 1.32 0 2 0 C1.49396008 2.16874252 1.00016187 3.99967627 0 6 C-0.99 6 -1.98 6 -3 6 C-3 6.66 -3 7.32 -3 8 C-3.66 8 -4.32 8 -5 8 C-3.63055898 5.05043472 -2.12169591 2.47531189 0 0 Z " fill="#22EC95" transform="translate(814,84)"/>
<path d="M0 0 C0.99 0 1.98 0 3 0 C3 0.66 3 1.32 3 2 C3.66 2 4.32 2 5 2 C5.33 2.99 5.66 3.98 6 5 C5.34 6.32 4.68 7.64 4 9 C2.68 6.03 1.36 3.06 0 0 Z " fill="#0BF7A1" transform="translate(871,120)"/>
<path d="M0 0 C0.66 0.99 1.32 1.98 2 3 C4.05003955 4.19232613 4.05003955 4.19232613 6 5 C-0.625 5.25 -0.625 5.25 -4 3 C-4 2.34 -4 1.68 -4 1 C-2.68 0.67 -1.36 0.34 0 0 Z " fill="#01FD49" transform="translate(553,58)"/>
<path d="M0 0 C6.93 0.495 6.93 0.495 14 1 C14 1.33 14 1.66 14 2 C12.98679687 2.09087891 12.98679687 2.09087891 11.953125 2.18359375 C11.06109375 2.26738281 10.1690625 2.35117188 9.25 2.4375 C8.36828125 2.51871094 7.4865625 2.59992188 6.578125 2.68359375 C4.30649548 2.96238465 2.20148177 3.38790577 0 4 C0 2.68 0 1.36 0 0 Z " fill="#28E5A0" transform="translate(692,91)"/>
<path d="M0 0 C0 0.66 0 1.32 0 2 C-2.31 2.33 -4.62 2.66 -7 3 C-7.33 3.99 -7.66 4.98 -8 6 C-8.66 5.01 -9.32 4.02 -10 3 C-6.27034861 0.96564469 -4.33094958 0 0 0 Z " fill="#24E59F" transform="translate(772,77)"/>
<path d="M0 0 C2.64 0 5.28 0 8 0 C7.67 1.32 7.34 2.64 7 4 C4.61435923 3.42415568 2.33317216 2.77772405 0 2 C0 1.34 0 0.68 0 0 Z " fill="#02FD73" transform="translate(608,102)"/>
<path d="M0 0 C0.99 0.33 1.98 0.66 3 1 C2.01 2.485 2.01 2.485 1 4 C0.34 4 -0.32 4 -1 4 C-1.33 4.66 -1.66 5.32 -2 6 C-2.99 5.67 -3.98 5.34 -5 5 C-3.35 3.35 -1.7 1.7 0 0 Z " fill="#05FA7F" transform="translate(590,87)"/>
<path d="M0 0 C4.67692308 1.47692308 4.67692308 1.47692308 6.3125 4.125 C6.539375 4.74375 6.76625 5.3625 7 6 C4.625 5.8125 4.625 5.8125 2 5 C0.6875 2.4375 0.6875 2.4375 0 0 Z " fill="#1AF2A2" transform="translate(622,122)"/>
<path d="M0 0 C4 4.875 4 4.875 4 6 C2.35 6 0.7 6 -1 6 C-1.33 5.01 -1.66 4.02 -2 3 C-1.34 2.01 -0.68 1.02 0 0 Z " fill="#13F2A2" transform="translate(618,116)"/>
<path d="M0 0 C2.64 0 5.28 0 8 0 C8 0.66 8 1.32 8 2 C3.545 2.495 3.545 2.495 -1 3 C-0.67 2.01 -0.34 1.02 0 0 Z " fill="#0EF36A" transform="translate(824,88)"/>
<path d="M0 0 C-4.95 2.475 -4.95 2.475 -10 5 C-9 2 -9 2 -6.125 0.25 C-3 -1 -3 -1 0 0 Z " fill="#2FDD5A" transform="translate(546,73)"/>
<path d="M0 0 C-4.625 4 -4.625 4 -8 4 C-8 3.34 -8 2.68 -8 2 C-7.34 2 -6.68 2 -6 2 C-6 1.34 -6 0.68 -6 0 C-2.25 -1.125 -2.25 -1.125 0 0 Z " fill="#25E675" transform="translate(858,131)"/>
<path d="M0 0 C1.875 1.25 1.875 1.25 2.875 4.25 C0.52328869 3.65138258 -1.8109378 2.98075648 -4.125 2.25 C-4.455 1.59 -4.785 0.93 -5.125 0.25 C-2.125 -0.75 -2.125 -0.75 0 0 Z " fill="#16F09C" transform="translate(533.125,130.75)"/>
<path d="" fill="#AAAAAA" transform="translate(0,0)"/>
</svg>
